<?xml version="1.0" encoding="utf-8"?>
<svg xmlns="http://www.w3.org/2000/svg" xmlns:xlink="http://www.w3.org/1999/xlink" width="600" height="400" viewBox="0 0 2400 1600">
<defs>
  <clipPath id="clip520">
    <rect x="0" y="0" width="2400" height="1600"/>
  </clipPath>
</defs>
<path clip-path="url(#clip520)" d="M0 1600 L2400 1600 L2400 0 L0 0  Z" fill="#ffffff" fill-rule="evenodd" fill-opacity="1"/>
<defs>
  <clipPath id="clip521">
    <rect x="480" y="0" width="1681" height="1600"/>
  </clipPath>
</defs>
<path clip-path="url(#clip520)" d="M203.964 1423.18 L1110.81 1423.18 L1110.81 47.2441 L203.964 47.2441  Z" fill="#ffffff" fill-rule="evenodd" fill-opacity="1"/>
<defs>
  <clipPath id="clip522">
    <rect x="203" y="47" width="908" height="1377"/>
  </clipPath>
</defs>
<polyline clip-path="url(#clip522)" style="stroke:#000000; stroke-linecap:round; stroke-linejoin:round; stroke-width:2; stroke-opacity:0.1; fill:none" points="229.629,1423.18 229.629,47.2441 "/>
<polyline clip-path="url(#clip522)" style="stroke:#000000; stroke-linecap:round; stroke-linejoin:round; stroke-width:2; stroke-opacity:0.1; fill:none" points="481.252,1423.18 481.252,47.2441 "/>
<polyline clip-path="url(#clip522)" style="stroke:#000000; stroke-linecap:round; stroke-linejoin:round; stroke-width:2; stroke-opacity:0.1; fill:none" points="732.874,1423.18 732.874,47.2441 "/>
<polyline clip-path="url(#clip522)" style="stroke:#000000; stroke-linecap:round; stroke-linejoin:round; stroke-width:2; stroke-opacity:0.1; fill:none" points="984.497,1423.18 984.497,47.2441 "/>
<polyline clip-path="url(#clip522)" style="stroke:#000000; stroke-linecap:round; stroke-linejoin:round; stroke-width:2; stroke-opacity:0.1; fill:none" points="203.964,1363.87 1110.81,1363.87 "/>
<polyline clip-path="url(#clip522)" style="stroke:#000000; stroke-linecap:round; stroke-linejoin:round; stroke-width:2; stroke-opacity:0.1; fill:none" points="203.964,925.462 1110.81,925.462 "/>
<polyline clip-path="url(#clip522)" style="stroke:#000000; stroke-linecap:round; stroke-linejoin:round; stroke-width:2; stroke-opacity:0.1; fill:none" points="203.964,487.051 1110.81,487.051 "/>
<polyline clip-path="url(#clip522)" style="stroke:#000000; stroke-linecap:round; stroke-linejoin:round; stroke-width:2; stroke-opacity:0.1; fill:none" points="203.964,48.6399 1110.81,48.6399 "/>
<polyline clip-path="url(#clip520)" style="stroke:#000000; stroke-linecap:round; stroke-linejoin:round; stroke-width:4; stroke-opacity:1; fill:none" points="203.964,1423.18 1110.81,1423.18 "/>
<polyline clip-path="url(#clip520)" style="stroke:#000000; stroke-linecap:round; stroke-linejoin:round; stroke-width:4; stroke-opacity:1; fill:none" points="229.629,1423.18 229.629,1404.28 "/>
<polyline clip-path="url(#clip520)" style="stroke:#000000; stroke-linecap:round; stroke-linejoin:round; stroke-width:4; stroke-opacity:1; fill:none" points="481.252,1423.18 481.252,1404.28 "/>
<polyline clip-path="url(#clip520)" style="stroke:#000000; stroke-linecap:round; stroke-linejoin:round; stroke-width:4; stroke-opacity:1; fill:none" points="732.874,1423.18 732.874,1404.28 "/>
<polyline clip-path="url(#clip520)" style="stroke:#000000; stroke-linecap:round; stroke-linejoin:round; stroke-width:4; stroke-opacity:1; fill:none" points="984.497,1423.18 984.497,1404.28 "/>
<path clip-path="url(#clip520)" d="M229.629 1454.1 Q226.018 1454.1 224.189 1457.66 Q222.384 1461.2 222.384 1468.33 Q222.384 1475.44 224.189 1479.01 Q226.018 1482.55 229.629 1482.55 Q233.263 1482.55 235.069 1479.01 Q236.898 1475.44 236.898 1468.33 Q236.898 1461.2 235.069 1457.66 Q233.263 1454.1 229.629 1454.1 M229.629 1450.39 Q235.439 1450.39 238.495 1455 Q241.573 1459.58 241.573 1468.33 Q241.573 1477.06 238.495 1481.67 Q235.439 1486.25 229.629 1486.25 Q223.819 1486.25 220.74 1481.67 Q217.685 1477.06 217.685 1468.33 Q217.685 1459.58 220.74 1455 Q223.819 1450.39 229.629 1450.39 Z" fill="#000000" fill-rule="nonzero" fill-opacity="1" /><path clip-path="url(#clip520)" d="M471.634 1481.64 L479.273 1481.64 L479.273 1455.28 L470.962 1456.95 L470.962 1452.69 L479.226 1451.02 L483.902 1451.02 L483.902 1481.64 L491.541 1481.64 L491.541 1485.58 L471.634 1485.58 L471.634 1481.64 Z" fill="#000000" fill-rule="nonzero" fill-opacity="1" /><path clip-path="url(#clip520)" d="M727.527 1481.64 L743.847 1481.64 L743.847 1485.58 L721.902 1485.58 L721.902 1481.64 Q724.564 1478.89 729.148 1474.26 Q733.754 1469.61 734.935 1468.27 Q737.18 1465.74 738.06 1464.01 Q738.962 1462.25 738.962 1460.56 Q738.962 1457.8 737.018 1456.07 Q735.097 1454.33 731.995 1454.33 Q729.796 1454.33 727.342 1455.09 Q724.912 1455.86 722.134 1457.41 L722.134 1452.69 Q724.958 1451.55 727.411 1450.97 Q729.865 1450.39 731.902 1450.39 Q737.273 1450.39 740.467 1453.08 Q743.661 1455.77 743.661 1460.26 Q743.661 1462.39 742.851 1464.31 Q742.064 1466.2 739.958 1468.8 Q739.379 1469.47 736.277 1472.69 Q733.175 1475.88 727.527 1481.64 Z" fill="#000000" fill-rule="nonzero" fill-opacity="1" /><path clip-path="url(#clip520)" d="M988.745 1466.95 Q992.101 1467.66 993.976 1469.93 Q995.874 1472.2 995.874 1475.53 Q995.874 1480.65 992.356 1483.45 Q988.837 1486.25 982.356 1486.25 Q980.18 1486.25 977.865 1485.81 Q975.574 1485.39 973.12 1484.54 L973.12 1480.02 Q975.064 1481.16 977.379 1481.74 Q979.694 1482.32 982.217 1482.32 Q986.615 1482.32 988.907 1480.58 Q991.222 1478.84 991.222 1475.53 Q991.222 1472.48 989.069 1470.77 Q986.939 1469.03 983.12 1469.03 L979.092 1469.03 L979.092 1465.19 L983.305 1465.19 Q986.754 1465.19 988.583 1463.82 Q990.411 1462.43 990.411 1459.84 Q990.411 1457.18 988.513 1455.77 Q986.638 1454.33 983.12 1454.33 Q981.199 1454.33 978.999 1454.75 Q976.8 1455.16 974.162 1456.04 L974.162 1451.88 Q976.824 1451.14 979.138 1450.77 Q981.476 1450.39 983.536 1450.39 Q988.861 1450.39 991.962 1452.83 Q995.064 1455.23 995.064 1459.35 Q995.064 1462.22 993.421 1464.21 Q991.777 1466.18 988.745 1466.95 Z" fill="#000000" fill-rule="nonzero" fill-opacity="1" /><path clip-path="url(#clip520)" d="M527.559 1520.52 L567.758 1520.52 L567.758 1525.93 L550.889 1525.93 L550.889 1568.04 L544.428 1568.04 L544.428 1525.93 L527.559 1525.93 L527.559 1520.52 Z" fill="#000000" fill-rule="nonzero" fill-opacity="1" /><path clip-path="url(#clip520)" d="M571.705 1532.4 L577.562 1532.4 L577.562 1568.04 L571.705 1568.04 L571.705 1532.4 M571.705 1518.52 L577.562 1518.52 L577.562 1525.93 L571.705 1525.93 L571.705 1518.52 Z" fill="#000000" fill-rule="nonzero" fill-opacity="1" /><path clip-path="url(#clip520)" d="M617.57 1539.24 Q619.766 1535.29 622.822 1533.41 Q625.877 1531.54 630.015 1531.54 Q635.585 1531.54 638.609 1535.45 Q641.633 1539.33 641.633 1546.53 L641.633 1568.04 L635.744 1568.04 L635.744 1546.72 Q635.744 1541.59 633.93 1539.11 Q632.116 1536.63 628.392 1536.63 Q623.84 1536.63 621.199 1539.65 Q618.557 1542.68 618.557 1547.9 L618.557 1568.04 L612.669 1568.04 L612.669 1546.72 Q612.669 1541.56 610.854 1539.11 Q609.04 1536.63 605.252 1536.63 Q600.765 1536.63 598.123 1539.68 Q595.481 1542.71 595.481 1547.9 L595.481 1568.04 L589.593 1568.04 L589.593 1532.4 L595.481 1532.4 L595.481 1537.93 Q597.486 1534.66 600.287 1533.1 Q603.088 1531.54 606.939 1531.54 Q610.822 1531.54 613.528 1533.51 Q616.265 1535.48 617.57 1539.24 Z" fill="#000000" fill-rule="nonzero" fill-opacity="1" /><path clip-path="url(#clip520)" d="M683.805 1548.76 L683.805 1551.62 L656.878 1551.62 Q657.26 1557.67 660.507 1560.85 Q663.785 1564 669.61 1564 Q672.984 1564 676.135 1563.17 Q679.317 1562.35 682.437 1560.69 L682.437 1566.23 Q679.286 1567.57 675.975 1568.27 Q672.665 1568.97 669.26 1568.97 Q660.73 1568.97 655.733 1564 Q650.767 1559.04 650.767 1550.57 Q650.767 1541.82 655.478 1536.69 Q660.22 1531.54 668.241 1531.54 Q675.434 1531.54 679.604 1536.18 Q683.805 1540.8 683.805 1548.76 M677.949 1547.04 Q677.885 1542.23 675.243 1539.37 Q672.633 1536.5 668.305 1536.5 Q663.403 1536.5 660.443 1539.27 Q657.515 1542.04 657.069 1547.07 L677.949 1547.04 Z" fill="#000000" fill-rule="nonzero" fill-opacity="1" /><path clip-path="url(#clip520)" d="M728.206 1518.58 Q723.941 1525.9 721.872 1533.06 Q719.803 1540.23 719.803 1547.58 Q719.803 1554.93 721.872 1562.16 Q723.973 1569.35 728.206 1576.64 L723.114 1576.64 Q718.339 1569.16 715.952 1561.93 Q713.597 1554.71 713.597 1547.58 Q713.597 1540.48 715.952 1533.29 Q718.307 1526.09 723.114 1518.58 L728.206 1518.58 Z" fill="#000000" fill-rule="nonzero" fill-opacity="1" /><path clip-path="url(#clip520)" d="M762.294 1533.45 L762.294 1538.98 Q759.812 1537.71 757.138 1537.07 Q754.465 1536.44 751.6 1536.44 Q747.24 1536.44 745.043 1537.77 Q742.879 1539.11 742.879 1541.79 Q742.879 1543.82 744.439 1545 Q745.998 1546.15 750.709 1547.2 L752.714 1547.64 Q758.952 1548.98 761.562 1551.43 Q764.204 1553.85 764.204 1558.21 Q764.204 1563.17 760.257 1566.07 Q756.343 1568.97 749.468 1568.97 Q746.603 1568.97 743.484 1568.39 Q740.396 1567.85 736.959 1566.74 L736.959 1560.69 Q740.205 1562.38 743.356 1563.24 Q746.508 1564.07 749.595 1564.07 Q753.733 1564.07 755.961 1562.66 Q758.189 1561.23 758.189 1558.65 Q758.189 1556.27 756.565 1554.99 Q754.974 1553.72 749.531 1552.54 L747.494 1552.07 Q742.052 1550.92 739.633 1548.56 Q737.214 1546.18 737.214 1542.04 Q737.214 1537.01 740.778 1534.27 Q744.343 1531.54 750.9 1531.54 Q754.146 1531.54 757.011 1532.01 Q759.876 1532.49 762.294 1533.45 Z" fill="#000000" fill-rule="nonzero" fill-opacity="1" /><path clip-path="url(#clip520)" d="M772.607 1518.58 L777.699 1518.58 Q782.474 1526.09 784.829 1533.29 Q787.216 1540.48 787.216 1547.58 Q787.216 1554.71 784.829 1561.93 Q782.474 1569.16 777.699 1576.64 L772.607 1576.64 Q776.84 1569.35 778.909 1562.16 Q781.01 1554.93 781.01 1547.58 Q781.01 1540.23 778.909 1533.06 Q776.84 1525.9 772.607 1518.58 Z" fill="#000000" fill-rule="nonzero" fill-opacity="1" /><polyline clip-path="url(#clip520)" style="stroke:#000000; stroke-linecap:round; stroke-linejoin:round; stroke-width:4; stroke-opacity:1; fill:none" points="203.964,1423.18 203.964,47.2441 "/>
<polyline clip-path="url(#clip520)" style="stroke:#000000; stroke-linecap:round; stroke-linejoin:round; stroke-width:4; stroke-opacity:1; fill:none" points="203.964,1363.87 222.861,1363.87 "/>
<polyline clip-path="url(#clip520)" style="stroke:#000000; stroke-linecap:round; stroke-linejoin:round; stroke-width:4; stroke-opacity:1; fill:none" points="203.964,925.462 222.861,925.462 "/>
<polyline clip-path="url(#clip520)" style="stroke:#000000; stroke-linecap:round; stroke-linejoin:round; stroke-width:4; stroke-opacity:1; fill:none" points="203.964,487.051 222.861,487.051 "/>
<polyline clip-path="url(#clip520)" style="stroke:#000000; stroke-linecap:round; stroke-linejoin:round; stroke-width:4; stroke-opacity:1; fill:none" points="203.964,48.6399 222.861,48.6399 "/>
<path clip-path="url(#clip520)" d="M156.019 1349.67 Q152.408 1349.67 150.579 1353.24 Q148.774 1356.78 148.774 1363.91 Q148.774 1371.01 150.579 1374.58 Q152.408 1378.12 156.019 1378.12 Q159.653 1378.12 161.459 1374.58 Q163.288 1371.01 163.288 1363.91 Q163.288 1356.78 161.459 1353.24 Q159.653 1349.67 156.019 1349.67 M156.019 1345.97 Q161.829 1345.97 164.885 1350.57 Q167.964 1355.16 167.964 1363.91 Q167.964 1372.63 164.885 1377.24 Q161.829 1381.82 156.019 1381.82 Q150.209 1381.82 147.13 1377.24 Q144.075 1372.63 144.075 1363.91 Q144.075 1355.16 147.13 1350.57 Q150.209 1345.97 156.019 1345.97 Z" fill="#000000" fill-rule="nonzero" fill-opacity="1" /><path clip-path="url(#clip520)" d="M116.668 938.807 L124.306 938.807 L124.306 912.441 L115.996 914.108 L115.996 909.849 L124.26 908.182 L128.936 908.182 L128.936 938.807 L136.575 938.807 L136.575 942.742 L116.668 942.742 L116.668 938.807 Z" fill="#000000" fill-rule="nonzero" fill-opacity="1" /><path clip-path="url(#clip520)" d="M156.019 911.261 Q152.408 911.261 150.579 914.826 Q148.774 918.367 148.774 925.497 Q148.774 932.603 150.579 936.168 Q152.408 939.71 156.019 939.71 Q159.653 939.71 161.459 936.168 Q163.288 932.603 163.288 925.497 Q163.288 918.367 161.459 914.826 Q159.653 911.261 156.019 911.261 M156.019 907.557 Q161.829 907.557 164.885 912.164 Q167.964 916.747 167.964 925.497 Q167.964 934.224 164.885 938.83 Q161.829 943.413 156.019 943.413 Q150.209 943.413 147.13 938.83 Q144.075 934.224 144.075 925.497 Q144.075 916.747 147.13 912.164 Q150.209 907.557 156.019 907.557 Z" fill="#000000" fill-rule="nonzero" fill-opacity="1" /><path clip-path="url(#clip520)" d="M119.885 500.396 L136.204 500.396 L136.204 504.331 L114.26 504.331 L114.26 500.396 Q116.922 497.641 121.505 493.012 Q126.112 488.359 127.292 487.016 Q129.538 484.493 130.417 482.757 Q131.32 480.998 131.32 479.308 Q131.32 476.553 129.376 474.817 Q127.455 473.081 124.353 473.081 Q122.154 473.081 119.7 473.845 Q117.269 474.609 114.492 476.16 L114.492 471.438 Q117.316 470.303 119.769 469.725 Q122.223 469.146 124.26 469.146 Q129.63 469.146 132.825 471.831 Q136.019 474.516 136.019 479.007 Q136.019 481.137 135.209 483.058 Q134.422 484.956 132.316 487.549 Q131.737 488.22 128.635 491.438 Q125.533 494.632 119.885 500.396 Z" fill="#000000" fill-rule="nonzero" fill-opacity="1" /><path clip-path="url(#clip520)" d="M156.019 472.85 Q152.408 472.85 150.579 476.415 Q148.774 479.956 148.774 487.086 Q148.774 494.192 150.579 497.757 Q152.408 501.299 156.019 501.299 Q159.653 501.299 161.459 497.757 Q163.288 494.192 163.288 487.086 Q163.288 479.956 161.459 476.415 Q159.653 472.85 156.019 472.85 M156.019 469.146 Q161.829 469.146 164.885 473.752 Q167.964 478.336 167.964 487.086 Q167.964 495.813 164.885 500.419 Q161.829 505.002 156.019 505.002 Q150.209 505.002 147.13 500.419 Q144.075 495.813 144.075 487.086 Q144.075 478.336 147.13 473.752 Q150.209 469.146 156.019 469.146 Z" fill="#000000" fill-rule="nonzero" fill-opacity="1" /><path clip-path="url(#clip520)" d="M130.024 47.2858 Q133.38 48.0034 135.255 50.2719 Q137.154 52.5404 137.154 55.8737 Q137.154 60.9894 133.635 63.7903 Q130.117 66.5912 123.635 66.5912 Q121.459 66.5912 119.144 66.1514 Q116.853 65.7347 114.399 64.8783 L114.399 60.3644 Q116.343 61.4987 118.658 62.0774 Q120.973 62.6561 123.496 62.6561 Q127.894 62.6561 130.186 60.92 Q132.501 59.1839 132.501 55.8737 Q132.501 52.8181 130.348 51.1052 Q128.218 49.3691 124.399 49.3691 L120.371 49.3691 L120.371 45.5265 L124.584 45.5265 Q128.033 45.5265 129.862 44.1608 Q131.691 42.7719 131.691 40.1793 Q131.691 37.5173 129.792 36.1053 Q127.917 34.6701 124.399 34.6701 Q122.478 34.6701 120.279 35.0868 Q118.08 35.5034 115.441 36.383 L115.441 32.2164 Q118.103 31.4757 120.418 31.1053 Q122.755 30.7349 124.816 30.7349 Q130.14 30.7349 133.242 33.1655 Q136.343 35.5729 136.343 39.6932 Q136.343 42.5636 134.7 44.5543 Q133.056 46.5219 130.024 47.2858 Z" fill="#000000" fill-rule="nonzero" fill-opacity="1" /><path clip-path="url(#clip520)" d="M156.019 34.4386 Q152.408 34.4386 150.579 38.0034 Q148.774 41.5451 148.774 48.6746 Q148.774 55.7811 150.579 59.3459 Q152.408 62.8875 156.019 62.8875 Q159.653 62.8875 161.459 59.3459 Q163.288 55.7811 163.288 48.6746 Q163.288 41.5451 161.459 38.0034 Q159.653 34.4386 156.019 34.4386 M156.019 30.7349 Q161.829 30.7349 164.885 35.3414 Q167.964 39.9247 167.964 48.6746 Q167.964 57.4015 164.885 62.0079 Q161.829 66.5912 156.019 66.5912 Q150.209 66.5912 147.13 62.0079 Q144.075 57.4015 144.075 48.6746 Q144.075 39.9247 147.13 35.3414 Q150.209 30.7349 156.019 30.7349 Z" fill="#000000" fill-rule="nonzero" fill-opacity="1" /><path clip-path="url(#clip520)" d="M39.4334 772.564 Q44.844 772.564 50.9309 774.303 Q56.9856 776.01 61.8809 778.715 Q66.744 781.42 69.9646 784.963 Q73.153 788.505 73.153 791.887 Q73.153 794.045 71.9613 795.655 Q70.7375 797.233 68.7085 798.103 Q66.6474 798.972 64.393 799.391 Q62.1063 799.81 59.6265 799.81 Q55.9228 799.81 51.8971 799.005 Q47.8391 798.199 44.1677 796.847 Q40.464 795.494 37.1146 793.594 Q33.733 791.694 31.2853 789.6 Q28.8055 787.475 27.3562 785.092 Q25.907 782.708 25.907 780.486 Q25.907 778.876 26.6155 777.588 Q27.2918 776.267 28.4834 775.43 Q29.6428 774.593 31.0277 774.013 Q32.4125 773.401 34.0228 773.111 Q35.6009 772.821 36.9214 772.692 Q38.2096 772.564 39.4334 772.564 M35.3433 776.911 Q33.7008 776.911 32.477 777.04 Q31.2209 777.169 29.9649 777.523 Q28.7089 777.878 28.0325 778.65 Q27.3562 779.391 27.3562 780.551 Q27.3562 783.932 34.2805 787.733 Q36.4383 788.956 39.369 790.051 Q42.2997 791.146 43.6846 791.533 Q45.0694 791.919 48.4833 792.821 L48.4833 779.037 Q39.6911 776.911 35.3433 776.911 M50.5766 779.617 L50.5766 793.336 Q58.6281 795.462 63.6522 795.462 Q68.0322 795.462 69.868 794.56 Q71.6715 793.626 71.6715 791.887 Q71.6715 789.89 69.6747 788.022 Q67.6458 786.154 63.9743 784.254 Q59.2078 781.742 50.5766 779.617 Z" fill="#000000" fill-rule="nonzero" fill-opacity="1" /><path clip-path="url(#clip520)" d="M22.9507 728.256 Q30.2712 732.521 37.4327 734.59 Q44.5941 736.658 51.9465 736.658 Q59.2989 736.658 66.5239 734.59 Q73.7172 732.489 81.0059 728.256 L81.0059 733.348 Q73.5262 738.123 66.3011 740.51 Q59.0761 742.865 51.9465 742.865 Q44.8487 742.865 37.6555 740.51 Q30.4622 738.154 22.9507 733.348 L22.9507 728.256 Z" fill="#000000" fill-rule="nonzero" fill-opacity="1" /><path clip-path="url(#clip520)" d="M28.1387 706.74 Q28.1387 709.286 29.9211 711.036 Q31.6717 712.787 34.218 712.787 Q36.7324 712.787 38.483 711.036 Q40.2017 709.286 40.2017 706.74 Q40.2017 704.193 38.483 702.443 Q36.7324 700.692 34.218 700.692 Q31.7035 700.692 29.9211 702.475 Q28.1387 704.225 28.1387 706.74 M24.0328 706.74 Q24.0328 704.703 24.8286 702.825 Q25.5924 700.947 27.0566 699.578 Q28.4888 698.114 30.3031 697.382 Q32.1173 696.65 34.218 696.65 Q38.4193 696.65 41.3476 699.61 Q44.244 702.538 44.244 706.803 Q44.244 711.1 41.3794 713.965 Q38.5148 716.829 34.218 716.829 Q29.953 716.829 26.9929 713.901 Q24.0328 710.973 24.0328 706.74 Z" fill="#000000" fill-rule="nonzero" fill-opacity="1" /><path clip-path="url(#clip520)" d="M22.9507 685.224 L22.9507 680.131 Q30.4622 675.357 37.6555 673.001 Q44.8487 670.614 51.9465 670.614 Q59.0761 670.614 66.3011 673.001 Q73.5262 675.357 81.0059 680.131 L81.0059 685.224 Q73.7172 680.99 66.5239 678.921 Q59.2989 676.821 51.9465 676.821 Q44.5941 676.821 37.4327 678.921 Q30.2712 680.99 22.9507 685.224 Z" fill="#000000" fill-rule="nonzero" fill-opacity="1" /><polyline clip-path="url(#clip522)" style="stroke:#009af9; stroke-linecap:round; stroke-linejoin:round; stroke-width:4; stroke-opacity:1; fill:none" points="229.629,1384.24 254.791,1249.59 279.954,1003.62 305.116,757.787 330.278,481.468 355.44,268.305 380.603,137.267 405.765,111.305 430.927,86.1857 456.089,134.32 481.252,164.696 506.414,202.137 531.576,232.919 556.739,225.999 581.901,282.487 607.063,291.261 632.225,280.964 657.388,287.856 682.55,206.602 707.712,294.757 732.874,269.42 758.037,292.77 783.199,244.187 808.361,238.913 833.524,275.845 858.686,272.581 883.848,263.615 909.01,233.305 934.173,257.985 959.335,292.105 984.497,253.474 1009.66,226.608 1034.82,286.305 1059.98,268.309 1085.15,271.72 "/>
<polyline clip-path="url(#clip522)" style="stroke:#e26f46; stroke-linecap:round; stroke-linejoin:round; stroke-width:3; stroke-opacity:1; fill:none" stroke-dasharray="12, 6, 2, 6" points="229.629,1383.64 254.791,1254.07 279.954,1000.64 305.116,749.398 330.278,483.459 355.44,271.17 380.603,138.915 405.765,107.062 430.927,93.0941 456.089,134.708 481.252,171.116 506.414,207.608 531.576,237.518 556.739,235.225 581.901,276.658 607.063,292.32 632.225,285.027 657.388,286.897 682.55,221.68 707.712,276.607 732.874,272.935 758.037,289.275 783.199,253.749 808.361,239.877 833.524,267.695 858.686,273.117 883.848,266.246 909.01,239.513 934.173,252.956 959.335,285.088 984.497,261.65 1009.66,232.583 1034.82,274.081 1059.98,271.411 1085.15,272.003 "/>
<path clip-path="url(#clip520)" d="M961.069 1377.32 L1080.58 1377.32 L1080.58 1221.8 L961.069 1221.8  Z" fill="#ffffff" fill-rule="evenodd" fill-opacity="1"/>
<polyline clip-path="url(#clip520)" style="stroke:#000000; stroke-linecap:round; stroke-linejoin:round; stroke-width:4; stroke-opacity:1; fill:none" points="961.069,1377.32 1080.58,1377.32 1080.58,1221.8 961.069,1221.8 961.069,1377.32 "/>
<polyline clip-path="url(#clip520)" style="stroke:#009af9; stroke-linecap:round; stroke-linejoin:round; stroke-width:4; stroke-opacity:1; fill:none" points="971.145,1273.64 1031.6,1273.64 "/>
<path clip-path="url(#clip520)" d="M1068.45 1260.37 Q1066.97 1260.37 1066.22 1260.51 Q1065.48 1260.63 1065.29 1260.8 Q1065.1 1260.96 1064.89 1261.38 L1054.58 1283.3 Q1053.48 1285.65 1051.42 1287.33 Q1049.38 1289.02 1046.81 1289.02 Q1044.65 1289.02 1043.15 1287.71 Q1041.68 1286.42 1041.68 1284.59 Q1041.68 1283.28 1042.5 1282.53 Q1043.32 1281.81 1044.42 1281.81 Q1045.64 1281.81 1046.41 1282.58 Q1047.21 1283.35 1047.21 1284.55 Q1047.21 1285.32 1046.88 1285.9 Q1046.55 1286.51 1046.25 1286.72 Q1045.96 1286.96 1045.66 1287.1 Q1046.15 1287.29 1046.81 1287.29 Q1047.79 1287.29 1048.63 1286.89 Q1049.5 1286.51 1050.06 1286 Q1050.65 1285.51 1051.23 1284.62 Q1051.82 1283.75 1052.1 1283.19 Q1052.38 1282.65 1052.8 1281.71 L1053.9 1279.42 L1044.93 1260.37 L1041.87 1260.37 L1041.87 1258.13 L1047.35 1258.27 L1053.3 1258.13 L1053.3 1260.37 L1050.7 1260.37 L1056.79 1273.33 L1062.31 1261.52 L1062.55 1260.96 Q1062.55 1260.7 1061.99 1260.56 Q1061.42 1260.4 1060.86 1260.4 L1060.3 1260.37 L1060.3 1258.13 L1064.66 1258.27 Q1066.72 1258.27 1068.45 1258.13 L1068.45 1260.37 Z" fill="#000000" fill-rule="nonzero" fill-opacity="1" /><polyline clip-path="url(#clip520)" style="stroke:#e26f46; stroke-linecap:round; stroke-linejoin:round; stroke-width:3; stroke-opacity:1; fill:none" stroke-dasharray="12, 6, 2, 6" points="971.145,1325.48 1031.6,1325.48 "/>
<path clip-path="url(#clip520)" d="M1064.26 1309.2 L1063.85 1309.87 Q1061.31 1308.77 1058.15 1307.01 Q1054.98 1308.77 1052.44 1309.87 L1052.05 1309.2 Q1054.82 1306.79 1058.15 1304.93 Q1061.51 1306.8 1064.26 1309.2 Z" fill="#000000" fill-rule="nonzero" fill-opacity="1" /><path clip-path="url(#clip520)" d="M1068.45 1317.22 Q1066.97 1317.22 1066.22 1317.36 Q1065.48 1317.48 1065.29 1317.64 Q1065.1 1317.8 1064.89 1318.23 L1054.58 1340.15 Q1053.48 1342.49 1051.42 1344.18 Q1049.38 1345.86 1046.81 1345.86 Q1044.65 1345.86 1043.15 1344.55 Q1041.68 1343.26 1041.68 1341.44 Q1041.68 1340.13 1042.5 1339.38 Q1043.32 1338.65 1044.42 1338.65 Q1045.64 1338.65 1046.41 1339.42 Q1047.21 1340.2 1047.21 1341.39 Q1047.21 1342.16 1046.88 1342.75 Q1046.55 1343.36 1046.25 1343.57 Q1045.96 1343.8 1045.66 1343.94 Q1046.15 1344.13 1046.81 1344.13 Q1047.79 1344.13 1048.63 1343.73 Q1049.5 1343.36 1050.06 1342.84 Q1050.65 1342.35 1051.23 1341.46 Q1051.82 1340.59 1052.1 1340.03 Q1052.38 1339.49 1052.8 1338.56 L1053.9 1336.26 L1044.93 1317.22 L1041.87 1317.22 L1041.87 1314.97 L1047.35 1315.11 L1053.3 1314.97 L1053.3 1317.22 L1050.7 1317.22 L1056.79 1330.17 L1062.31 1318.37 L1062.55 1317.8 Q1062.55 1317.55 1061.99 1317.41 Q1061.42 1317.24 1060.86 1317.24 L1060.3 1317.22 L1060.3 1314.97 L1064.66 1315.11 Q1066.72 1315.11 1068.45 1314.97 L1068.45 1317.22 Z" fill="#000000" fill-rule="nonzero" fill-opacity="1" /><path clip-path="url(#clip520)" d="M1445.91 398.692 L2352.76 398.692 L2352.76 47.2441 L1445.91 47.2441  Z" fill="#ffffff" fill-rule="evenodd" fill-opacity="1"/>
<defs>
  <clipPath id="clip523">
    <rect x="1445" y="47" width="908" height="352"/>
  </clipPath>
</defs>
<polyline clip-path="url(#clip523)" style="stroke:#000000; stroke-linecap:round; stroke-linejoin:round; stroke-width:2; stroke-opacity:0.1; fill:none" points="1471.57,398.692 1471.57,47.2441 "/>
<polyline clip-path="url(#clip523)" style="stroke:#000000; stroke-linecap:round; stroke-linejoin:round; stroke-width:2; stroke-opacity:0.1; fill:none" points="1723.2,398.692 1723.2,47.2441 "/>
<polyline clip-path="url(#clip523)" style="stroke:#000000; stroke-linecap:round; stroke-linejoin:round; stroke-width:2; stroke-opacity:0.1; fill:none" points="1974.82,398.692 1974.82,47.2441 "/>
<polyline clip-path="url(#clip523)" style="stroke:#000000; stroke-linecap:round; stroke-linejoin:round; stroke-width:2; stroke-opacity:0.1; fill:none" points="2226.44,398.692 2226.44,47.2441 "/>
<polyline clip-path="url(#clip523)" style="stroke:#000000; stroke-linecap:round; stroke-linejoin:round; stroke-width:2; stroke-opacity:0.1; fill:none" points="1445.91,383.668 2352.76,383.668 "/>
<polyline clip-path="url(#clip523)" style="stroke:#000000; stroke-linecap:round; stroke-linejoin:round; stroke-width:2; stroke-opacity:0.1; fill:none" points="1445.91,319.134 2352.76,319.134 "/>
<polyline clip-path="url(#clip523)" style="stroke:#000000; stroke-linecap:round; stroke-linejoin:round; stroke-width:2; stroke-opacity:0.1; fill:none" points="1445.91,254.6 2352.76,254.6 "/>
<polyline clip-path="url(#clip523)" style="stroke:#000000; stroke-linecap:round; stroke-linejoin:round; stroke-width:2; stroke-opacity:0.1; fill:none" points="1445.91,190.067 2352.76,190.067 "/>
<polyline clip-path="url(#clip523)" style="stroke:#000000; stroke-linecap:round; stroke-linejoin:round; stroke-width:2; stroke-opacity:0.1; fill:none" points="1445.91,125.533 2352.76,125.533 "/>
<polyline clip-path="url(#clip523)" style="stroke:#000000; stroke-linecap:round; stroke-linejoin:round; stroke-width:2; stroke-opacity:0.1; fill:none" points="1445.91,60.9991 2352.76,60.9991 "/>
<polyline clip-path="url(#clip520)" style="stroke:#000000; stroke-linecap:round; stroke-linejoin:round; stroke-width:4; stroke-opacity:1; fill:none" points="1445.91,398.692 2352.76,398.692 "/>
<polyline clip-path="url(#clip520)" style="stroke:#000000; stroke-linecap:round; stroke-linejoin:round; stroke-width:4; stroke-opacity:1; fill:none" points="1471.57,398.692 1471.57,379.794 "/>
<polyline clip-path="url(#clip520)" style="stroke:#000000; stroke-linecap:round; stroke-linejoin:round; stroke-width:4; stroke-opacity:1; fill:none" points="1723.2,398.692 1723.2,379.794 "/>
<polyline clip-path="url(#clip520)" style="stroke:#000000; stroke-linecap:round; stroke-linejoin:round; stroke-width:4; stroke-opacity:1; fill:none" points="1974.82,398.692 1974.82,379.794 "/>
<polyline clip-path="url(#clip520)" style="stroke:#000000; stroke-linecap:round; stroke-linejoin:round; stroke-width:4; stroke-opacity:1; fill:none" points="2226.44,398.692 2226.44,379.794 "/>
<path clip-path="url(#clip520)" d="M1471.57 429.611 Q1467.96 429.611 1466.13 433.175 Q1464.33 436.717 1464.33 443.847 Q1464.33 450.953 1466.13 454.518 Q1467.96 458.059 1471.57 458.059 Q1475.21 458.059 1477.01 454.518 Q1478.84 450.953 1478.84 443.847 Q1478.84 436.717 1477.01 433.175 Q1475.21 429.611 1471.57 429.611 M1471.57 425.907 Q1477.38 425.907 1480.44 430.513 Q1483.52 435.097 1483.52 443.847 Q1483.52 452.573 1480.44 457.18 Q1477.38 461.763 1471.57 461.763 Q1465.76 461.763 1462.68 457.18 Q1459.63 452.573 1459.63 443.847 Q1459.63 435.097 1462.68 430.513 Q1465.76 425.907 1471.57 425.907 Z" fill="#000000" fill-rule="nonzero" fill-opacity="1" /><path clip-path="url(#clip520)" d="M1713.58 457.157 L1721.22 457.157 L1721.22 430.791 L1712.91 432.458 L1712.91 428.199 L1721.17 426.532 L1725.85 426.532 L1725.85 457.157 L1733.49 457.157 L1733.49 461.092 L1713.58 461.092 L1713.58 457.157 Z" fill="#000000" fill-rule="nonzero" fill-opacity="1" /><path clip-path="url(#clip520)" d="M1969.47 457.157 L1985.79 457.157 L1985.79 461.092 L1963.85 461.092 L1963.85 457.157 Q1966.51 454.402 1971.09 449.772 Q1975.7 445.12 1976.88 443.777 Q1979.12 441.254 1980 439.518 Q1980.91 437.759 1980.91 436.069 Q1980.91 433.314 1978.96 431.578 Q1977.04 429.842 1973.94 429.842 Q1971.74 429.842 1969.29 430.606 Q1966.86 431.37 1964.08 432.921 L1964.08 428.199 Q1966.9 427.064 1969.36 426.486 Q1971.81 425.907 1973.85 425.907 Q1979.22 425.907 1982.41 428.592 Q1985.61 431.277 1985.61 435.768 Q1985.61 437.898 1984.8 439.819 Q1984.01 441.717 1981.9 444.31 Q1981.32 444.981 1978.22 448.198 Q1975.12 451.393 1969.47 457.157 Z" fill="#000000" fill-rule="nonzero" fill-opacity="1" /><path clip-path="url(#clip520)" d="M2230.69 442.458 Q2234.05 443.175 2235.92 445.444 Q2237.82 447.712 2237.82 451.046 Q2237.82 456.161 2234.3 458.962 Q2230.78 461.763 2224.3 461.763 Q2222.12 461.763 2219.81 461.323 Q2217.52 460.907 2215.06 460.05 L2215.06 455.536 Q2217.01 456.671 2219.32 457.249 Q2221.64 457.828 2224.16 457.828 Q2228.56 457.828 2230.85 456.092 Q2233.17 454.356 2233.17 451.046 Q2233.17 447.99 2231.01 446.277 Q2228.88 444.541 2225.06 444.541 L2221.04 444.541 L2221.04 440.698 L2225.25 440.698 Q2228.7 440.698 2230.53 439.333 Q2232.36 437.944 2232.36 435.351 Q2232.36 432.689 2230.46 431.277 Q2228.58 429.842 2225.06 429.842 Q2223.14 429.842 2220.94 430.259 Q2218.74 430.675 2216.11 431.555 L2216.11 427.388 Q2218.77 426.648 2221.08 426.277 Q2223.42 425.907 2225.48 425.907 Q2230.8 425.907 2233.91 428.337 Q2237.01 430.745 2237.01 434.865 Q2237.01 437.736 2235.36 439.726 Q2233.72 441.694 2230.69 442.458 Z" fill="#000000" fill-rule="nonzero" fill-opacity="1" /><polyline clip-path="url(#clip520)" style="stroke:#000000; stroke-linecap:round; stroke-linejoin:round; stroke-width:4; stroke-opacity:1; fill:none" points="1445.91,398.692 1445.91,47.2441 "/>
<polyline clip-path="url(#clip520)" style="stroke:#000000; stroke-linecap:round; stroke-linejoin:round; stroke-width:4; stroke-opacity:1; fill:none" points="1445.91,383.668 1464.81,383.668 "/>
<polyline clip-path="url(#clip520)" style="stroke:#000000; stroke-linecap:round; stroke-linejoin:round; stroke-width:4; stroke-opacity:1; fill:none" points="1445.91,319.134 1464.81,319.134 "/>
<polyline clip-path="url(#clip520)" style="stroke:#000000; stroke-linecap:round; stroke-linejoin:round; stroke-width:4; stroke-opacity:1; fill:none" points="1445.91,254.6 1464.81,254.6 "/>
<polyline clip-path="url(#clip520)" style="stroke:#000000; stroke-linecap:round; stroke-linejoin:round; stroke-width:4; stroke-opacity:1; fill:none" points="1445.91,190.067 1464.81,190.067 "/>
<polyline clip-path="url(#clip520)" style="stroke:#000000; stroke-linecap:round; stroke-linejoin:round; stroke-width:4; stroke-opacity:1; fill:none" points="1445.91,125.533 1464.81,125.533 "/>
<polyline clip-path="url(#clip520)" style="stroke:#000000; stroke-linecap:round; stroke-linejoin:round; stroke-width:4; stroke-opacity:1; fill:none" points="1445.91,60.9991 1464.81,60.9991 "/>
<path clip-path="url(#clip520)" d="M1352.73 369.467 Q1349.12 369.467 1347.29 373.031 Q1345.49 376.573 1345.49 383.703 Q1345.49 390.809 1347.29 394.374 Q1349.12 397.915 1352.73 397.915 Q1356.37 397.915 1358.17 394.374 Q1360 390.809 1360 383.703 Q1360 376.573 1358.17 373.031 Q1356.37 369.467 1352.73 369.467 M1352.73 365.763 Q1358.54 365.763 1361.6 370.369 Q1364.68 374.953 1364.68 383.703 Q1364.68 392.429 1361.6 397.036 Q1358.54 401.619 1352.73 401.619 Q1346.92 401.619 1343.84 397.036 Q1340.79 392.429 1340.79 383.703 Q1340.79 374.953 1343.84 370.369 Q1346.92 365.763 1352.73 365.763 Z" fill="#000000" fill-rule="nonzero" fill-opacity="1" /><path clip-path="url(#clip520)" d="M1372.89 395.068 L1377.78 395.068 L1377.78 400.948 L1372.89 400.948 L1372.89 395.068 Z" fill="#000000" fill-rule="nonzero" fill-opacity="1" /><path clip-path="url(#clip520)" d="M1397.96 369.467 Q1394.35 369.467 1392.52 373.031 Q1390.72 376.573 1390.72 383.703 Q1390.72 390.809 1392.52 394.374 Q1394.35 397.915 1397.96 397.915 Q1401.6 397.915 1403.4 394.374 Q1405.23 390.809 1405.23 383.703 Q1405.23 376.573 1403.4 373.031 Q1401.6 369.467 1397.96 369.467 M1397.96 365.763 Q1403.77 365.763 1406.83 370.369 Q1409.91 374.953 1409.91 383.703 Q1409.91 392.429 1406.83 397.036 Q1403.77 401.619 1397.96 401.619 Q1392.15 401.619 1389.07 397.036 Q1386.02 392.429 1386.02 383.703 Q1386.02 374.953 1389.07 370.369 Q1392.15 365.763 1397.96 365.763 Z" fill="#000000" fill-rule="nonzero" fill-opacity="1" /><path clip-path="url(#clip520)" d="M1353.96 304.933 Q1350.35 304.933 1348.52 308.498 Q1346.71 312.039 1346.71 319.169 Q1346.71 326.275 1348.52 329.84 Q1350.35 333.382 1353.96 333.382 Q1357.59 333.382 1359.4 329.84 Q1361.23 326.275 1361.23 319.169 Q1361.23 312.039 1359.4 308.498 Q1357.59 304.933 1353.96 304.933 M1353.96 301.229 Q1359.77 301.229 1362.82 305.836 Q1365.9 310.419 1365.9 319.169 Q1365.9 327.896 1362.82 332.502 Q1359.77 337.085 1353.96 337.085 Q1348.15 337.085 1345.07 332.502 Q1342.01 327.896 1342.01 319.169 Q1342.01 310.419 1345.07 305.836 Q1348.15 301.229 1353.96 301.229 Z" fill="#000000" fill-rule="nonzero" fill-opacity="1" /><path clip-path="url(#clip520)" d="M1374.12 330.535 L1379.01 330.535 L1379.01 336.414 L1374.12 336.414 L1374.12 330.535 Z" fill="#000000" fill-rule="nonzero" fill-opacity="1" /><path clip-path="url(#clip520)" d="M1390 332.479 L1397.64 332.479 L1397.64 306.113 L1389.33 307.78 L1389.33 303.521 L1397.59 301.854 L1402.27 301.854 L1402.27 332.479 L1409.91 332.479 L1409.91 336.414 L1390 336.414 L1390 332.479 Z" fill="#000000" fill-rule="nonzero" fill-opacity="1" /><path clip-path="url(#clip520)" d="M1354.33 240.399 Q1350.72 240.399 1348.89 243.964 Q1347.08 247.506 1347.08 254.635 Q1347.08 261.742 1348.89 265.306 Q1350.72 268.848 1354.33 268.848 Q1357.96 268.848 1359.77 265.306 Q1361.6 261.742 1361.6 254.635 Q1361.6 247.506 1359.77 243.964 Q1357.96 240.399 1354.33 240.399 M1354.33 236.695 Q1360.14 236.695 1363.2 241.302 Q1366.27 245.885 1366.27 254.635 Q1366.27 263.362 1363.2 267.968 Q1360.14 272.552 1354.33 272.552 Q1348.52 272.552 1345.44 267.968 Q1342.39 263.362 1342.39 254.635 Q1342.39 245.885 1345.44 241.302 Q1348.52 236.695 1354.33 236.695 Z" fill="#000000" fill-rule="nonzero" fill-opacity="1" /><path clip-path="url(#clip520)" d="M1374.49 266.001 L1379.38 266.001 L1379.38 271.88 L1374.49 271.88 L1374.49 266.001 Z" fill="#000000" fill-rule="nonzero" fill-opacity="1" /><path clip-path="url(#clip520)" d="M1393.59 267.945 L1409.91 267.945 L1409.91 271.88 L1387.96 271.88 L1387.96 267.945 Q1390.63 265.191 1395.21 260.561 Q1399.82 255.908 1401 254.566 Q1403.24 252.043 1404.12 250.306 Q1405.02 248.547 1405.02 246.857 Q1405.02 244.103 1403.08 242.367 Q1401.16 240.631 1398.06 240.631 Q1395.86 240.631 1393.4 241.394 Q1390.97 242.158 1388.19 243.709 L1388.19 238.987 Q1391.02 237.853 1393.47 237.274 Q1395.93 236.695 1397.96 236.695 Q1403.33 236.695 1406.53 239.381 Q1409.72 242.066 1409.72 246.556 Q1409.72 248.686 1408.91 250.607 Q1408.13 252.505 1406.02 255.098 Q1405.44 255.769 1402.34 258.987 Q1399.24 262.181 1393.59 267.945 Z" fill="#000000" fill-rule="nonzero" fill-opacity="1" /><path clip-path="url(#clip520)" d="M1353.38 175.865 Q1349.77 175.865 1347.94 179.43 Q1346.13 182.972 1346.13 190.101 Q1346.13 197.208 1347.94 200.773 Q1349.77 204.314 1353.38 204.314 Q1357.01 204.314 1358.82 200.773 Q1360.65 197.208 1360.65 190.101 Q1360.65 182.972 1358.82 179.43 Q1357.01 175.865 1353.38 175.865 M1353.38 172.162 Q1359.19 172.162 1362.25 176.768 Q1365.32 181.351 1365.32 190.101 Q1365.32 198.828 1362.25 203.435 Q1359.19 208.018 1353.38 208.018 Q1347.57 208.018 1344.49 203.435 Q1341.44 198.828 1341.44 190.101 Q1341.44 181.351 1344.49 176.768 Q1347.57 172.162 1353.38 172.162 Z" fill="#000000" fill-rule="nonzero" fill-opacity="1" /><path clip-path="url(#clip520)" d="M1373.54 201.467 L1378.43 201.467 L1378.43 207.347 L1373.54 207.347 L1373.54 201.467 Z" fill="#000000" fill-rule="nonzero" fill-opacity="1" /><path clip-path="url(#clip520)" d="M1402.78 188.712 Q1406.13 189.43 1408.01 191.699 Q1409.91 193.967 1409.91 197.3 Q1409.91 202.416 1406.39 205.217 Q1402.87 208.018 1396.39 208.018 Q1394.21 208.018 1391.9 207.578 Q1389.61 207.161 1387.15 206.305 L1387.15 201.791 Q1389.1 202.925 1391.41 203.504 Q1393.73 204.083 1396.25 204.083 Q1400.65 204.083 1402.94 202.347 Q1405.26 200.611 1405.26 197.3 Q1405.26 194.245 1403.1 192.532 Q1400.97 190.796 1397.15 190.796 L1393.13 190.796 L1393.13 186.953 L1397.34 186.953 Q1400.79 186.953 1402.62 185.587 Q1404.44 184.199 1404.44 181.606 Q1404.44 178.944 1402.55 177.532 Q1400.67 176.097 1397.15 176.097 Q1395.23 176.097 1393.03 176.513 Q1390.83 176.93 1388.19 177.81 L1388.19 173.643 Q1390.86 172.902 1393.17 172.532 Q1395.51 172.162 1397.57 172.162 Q1402.89 172.162 1406 174.592 Q1409.1 177 1409.1 181.12 Q1409.1 183.99 1407.45 185.981 Q1405.81 187.949 1402.78 188.712 Z" fill="#000000" fill-rule="nonzero" fill-opacity="1" /><path clip-path="url(#clip520)" d="M1352.25 111.332 Q1348.63 111.332 1346.81 114.896 Q1345 118.438 1345 125.568 Q1345 132.674 1346.81 136.239 Q1348.63 139.78 1352.25 139.78 Q1355.88 139.78 1357.69 136.239 Q1359.51 132.674 1359.51 125.568 Q1359.51 118.438 1357.69 114.896 Q1355.88 111.332 1352.25 111.332 M1352.25 107.628 Q1358.06 107.628 1361.11 112.234 Q1364.19 116.818 1364.19 125.568 Q1364.19 134.294 1361.11 138.901 Q1358.06 143.484 1352.25 143.484 Q1346.44 143.484 1343.36 138.901 Q1340.3 134.294 1340.3 125.568 Q1340.3 116.818 1343.36 112.234 Q1346.44 107.628 1352.25 107.628 Z" fill="#000000" fill-rule="nonzero" fill-opacity="1" /><path clip-path="url(#clip520)" d="M1372.41 136.933 L1377.29 136.933 L1377.29 142.813 L1372.41 142.813 L1372.41 136.933 Z" fill="#000000" fill-rule="nonzero" fill-opacity="1" /><path clip-path="url(#clip520)" d="M1400.32 112.327 L1388.52 130.776 L1400.32 130.776 L1400.32 112.327 M1399.1 108.253 L1404.98 108.253 L1404.98 130.776 L1409.91 130.776 L1409.91 134.665 L1404.98 134.665 L1404.98 142.813 L1400.32 142.813 L1400.32 134.665 L1384.72 134.665 L1384.72 130.151 L1399.1 108.253 Z" fill="#000000" fill-rule="nonzero" fill-opacity="1" /><path clip-path="url(#clip520)" d="M1353.73 46.7978 Q1350.12 46.7978 1348.29 50.3626 Q1346.48 53.9043 1346.48 61.0339 Q1346.48 68.1403 1348.29 71.7051 Q1350.12 75.2467 1353.73 75.2467 Q1357.36 75.2467 1359.17 71.7051 Q1361 68.1403 1361 61.0339 Q1361 53.9043 1359.17 50.3626 Q1357.36 46.7978 1353.73 46.7978 M1353.73 43.0941 Q1359.54 43.0941 1362.59 47.7006 Q1365.67 52.2839 1365.67 61.0339 Q1365.67 69.7607 1362.59 74.3671 Q1359.54 78.9504 1353.73 78.9504 Q1347.92 78.9504 1344.84 74.3671 Q1341.78 69.7607 1341.78 61.0339 Q1341.78 52.2839 1344.84 47.7006 Q1347.92 43.0941 1353.73 43.0941 Z" fill="#000000" fill-rule="nonzero" fill-opacity="1" /><path clip-path="url(#clip520)" d="M1373.89 72.3995 L1378.77 72.3995 L1378.77 78.2791 L1373.89 78.2791 L1373.89 72.3995 Z" fill="#000000" fill-rule="nonzero" fill-opacity="1" /><path clip-path="url(#clip520)" d="M1389.01 43.7191 L1407.36 43.7191 L1407.36 47.6543 L1393.29 47.6543 L1393.29 56.1265 Q1394.31 55.7793 1395.32 55.6172 Q1396.34 55.432 1397.36 55.432 Q1403.15 55.432 1406.53 58.6033 Q1409.91 61.7746 1409.91 67.1912 Q1409.91 72.7699 1406.44 75.8717 Q1402.96 78.9504 1396.64 78.9504 Q1394.47 78.9504 1392.2 78.5801 Q1389.95 78.2097 1387.55 77.469 L1387.55 72.7699 Q1389.63 73.9042 1391.85 74.4597 Q1394.07 75.0153 1396.55 75.0153 Q1400.56 75.0153 1402.89 72.9088 Q1405.23 70.8023 1405.23 67.1912 Q1405.23 63.5801 1402.89 61.4737 Q1400.56 59.3672 1396.55 59.3672 Q1394.68 59.3672 1392.8 59.7839 Q1390.95 60.2005 1389.01 61.0802 L1389.01 43.7191 Z" fill="#000000" fill-rule="nonzero" fill-opacity="1" /><path clip-path="url(#clip520)" d="M1265.47 298.084 Q1270.89 298.084 1276.97 299.823 Q1283.03 301.53 1287.92 304.235 Q1292.79 306.941 1296.01 310.483 Q1299.19 314.026 1299.19 317.408 Q1299.19 319.565 1298 321.176 Q1296.78 322.754 1294.75 323.623 Q1292.69 324.493 1290.43 324.912 Q1288.15 325.33 1285.67 325.33 Q1281.96 325.33 1277.94 324.525 Q1273.88 323.72 1270.21 322.367 Q1266.51 321.015 1263.16 319.115 Q1259.77 317.214 1257.33 315.121 Q1254.85 312.995 1253.4 310.612 Q1251.95 308.229 1251.95 306.007 Q1251.95 304.396 1252.66 303.108 Q1253.33 301.788 1254.52 300.95 Q1255.68 300.113 1257.07 299.533 Q1258.45 298.921 1260.06 298.632 Q1261.64 298.342 1262.96 298.213 Q1264.25 298.084 1265.47 298.084 M1261.38 302.432 Q1259.74 302.432 1258.52 302.561 Q1257.26 302.69 1256.01 303.044 Q1254.75 303.398 1254.07 304.171 Q1253.4 304.912 1253.4 306.071 Q1253.4 309.453 1260.32 313.253 Q1262.48 314.477 1265.41 315.572 Q1268.34 316.667 1269.73 317.053 Q1271.11 317.44 1274.52 318.342 L1274.52 304.558 Q1265.73 302.432 1261.38 302.432 M1276.62 305.137 L1276.62 318.857 Q1284.67 320.983 1289.69 320.983 Q1294.07 320.983 1295.91 320.081 Q1297.71 319.147 1297.71 317.408 Q1297.71 315.411 1295.72 313.543 Q1293.69 311.675 1290.02 309.775 Q1285.25 307.263 1276.62 305.137 Z" fill="#000000" fill-rule="nonzero" fill-opacity="1" /><path clip-path="url(#clip520)" d="M1248.99 253.776 Q1256.31 258.041 1263.47 260.11 Q1270.64 262.179 1277.99 262.179 Q1285.34 262.179 1292.57 260.11 Q1299.76 258.009 1307.05 253.776 L1307.05 258.869 Q1299.57 263.643 1292.34 266.03 Q1285.12 268.386 1277.99 268.386 Q1270.89 268.386 1263.7 266.03 Q1256.5 263.675 1248.99 258.869 L1248.99 253.776 Z" fill="#000000" fill-rule="nonzero" fill-opacity="1" /><path clip-path="url(#clip520)" d="M1268.28 221.757 Q1267.71 222.743 1267.45 223.921 Q1267.17 225.067 1267.17 226.467 Q1267.17 231.433 1270.41 234.106 Q1273.63 236.748 1279.67 236.748 L1298.45 236.748 L1298.45 242.636 L1262.81 242.636 L1262.81 236.748 L1268.34 236.748 Q1265.1 234.902 1263.54 231.942 Q1261.95 228.982 1261.95 224.749 Q1261.95 224.144 1262.04 223.412 Q1262.11 222.68 1262.26 221.789 L1268.28 221.757 Z" fill="#000000" fill-rule="nonzero" fill-opacity="1" /><path clip-path="url(#clip520)" d="M1280.53 199.413 Q1280.53 206.511 1282.16 209.248 Q1283.78 211.985 1287.7 211.985 Q1290.81 211.985 1292.66 209.948 Q1294.48 207.879 1294.48 204.347 Q1294.48 199.477 1291.04 196.549 Q1287.57 193.588 1281.84 193.588 L1280.53 193.588 L1280.53 199.413 M1278.12 187.732 L1298.45 187.732 L1298.45 193.588 L1293.04 193.588 Q1296.29 195.594 1297.85 198.586 Q1299.38 201.577 1299.38 205.906 Q1299.38 211.381 1296.32 214.627 Q1293.23 217.842 1288.08 217.842 Q1282.06 217.842 1279.01 213.831 Q1275.95 209.789 1275.95 201.8 L1275.95 193.588 L1275.38 193.588 Q1271.34 193.588 1269.14 196.262 Q1266.91 198.904 1266.91 203.71 Q1266.91 206.766 1267.64 209.662 Q1268.38 212.558 1269.84 215.232 L1264.43 215.232 Q1263.19 212.017 1262.58 208.993 Q1261.95 205.97 1261.95 203.105 Q1261.95 195.371 1265.96 191.551 Q1269.97 187.732 1278.12 187.732 Z" fill="#000000" fill-rule="nonzero" fill-opacity="1" /><path clip-path="url(#clip520)" d="M1268.22 152.211 L1248.93 152.211 L1248.93 146.355 L1298.45 146.355 L1298.45 152.211 L1293.11 152.211 Q1296.29 154.057 1297.85 156.89 Q1299.38 159.691 1299.38 163.638 Q1299.38 170.099 1294.22 174.173 Q1289.06 178.215 1280.66 178.215 Q1272.26 178.215 1267.1 174.173 Q1261.95 170.099 1261.95 163.638 Q1261.95 159.691 1263.51 156.89 Q1265.03 154.057 1268.22 152.211 M1280.66 172.168 Q1287.12 172.168 1290.81 169.526 Q1294.48 166.853 1294.48 162.206 Q1294.48 157.559 1290.81 154.885 Q1287.12 152.211 1280.66 152.211 Q1274.2 152.211 1270.54 154.885 Q1266.85 157.559 1266.85 162.206 Q1266.85 166.853 1270.54 169.526 Q1274.2 172.168 1280.66 172.168 Z" fill="#000000" fill-rule="nonzero" fill-opacity="1" /><path clip-path="url(#clip520)" d="M1248.99 135.215 L1248.99 130.122 Q1256.5 125.348 1263.7 122.993 Q1270.89 120.606 1277.99 120.606 Q1285.12 120.606 1292.34 122.993 Q1299.57 125.348 1307.05 130.122 L1307.05 135.215 Q1299.76 130.982 1292.57 128.913 Q1285.34 126.812 1277.99 126.812 Q1270.64 126.812 1263.47 128.913 Q1256.31 130.982 1248.99 135.215 Z" fill="#000000" fill-rule="nonzero" fill-opacity="1" /><polyline clip-path="url(#clip523)" style="stroke:#009af9; stroke-linecap:round; stroke-linejoin:round; stroke-width:4; stroke-opacity:1; fill:none" points="1471.57,383.668 1496.74,355.644 1521.9,292.074 1547.06,218.87 1572.22,153.358 1597.38,104.323 1622.55,73.8602 1647.71,59.8566 1672.87,58.184 1698.03,64.2709 1723.2,74.0517 1748.36,84.4354 1773.52,93.4324 1798.68,100.059 1823.85,104.115 1849.01,105.916 1874.17,106.038 1899.33,105.121 1924.49,103.732 1949.66,102.295 1974.82,101.075 1999.98,100.197 2025.14,99.6759 2050.31,99.4615 2075.47,99.4696 2100.63,99.6113 2125.79,99.8099 2150.95,100.009 2176.12,100.174 2201.28,100.29 2226.44,100.357 2251.6,100.382 2276.77,100.378 2301.93,100.357 2327.09,100.328 "/>
<polyline clip-path="url(#clip523)" style="stroke:#e26f46; stroke-linecap:round; stroke-linejoin:round; stroke-width:3; stroke-opacity:1; fill:none" stroke-dasharray="12, 6, 2, 6" points="1471.57,388.745 1496.74,355.459 1521.9,290.348 1547.06,225.803 1572.22,157.48 1597.38,102.94 1622.55,68.9626 1647.71,60.7793 1672.87,57.1907 1698.03,67.8819 1723.2,77.2355 1748.36,86.6107 1773.52,94.2949 1798.68,93.7058 1823.85,104.35 1849.01,108.374 1874.17,106.5 1899.33,106.981 1924.49,90.2257 1949.66,104.337 1974.82,103.394 1999.98,107.592 2025.14,98.4648 2050.31,94.9009 2075.47,102.048 2100.63,103.44 2125.79,101.675 2150.95,94.8073 2176.12,98.2609 2201.28,106.516 2226.44,100.495 2251.6,93.0268 2276.77,103.688 2301.93,103.002 2327.09,103.154 "/>
<path clip-path="url(#clip520)" d="M2203.01 386.977 L2322.53 386.977 L2322.53 231.457 L2203.01 231.457  Z" fill="#ffffff" fill-rule="evenodd" fill-opacity="1"/>
<polyline clip-path="url(#clip520)" style="stroke:#000000; stroke-linecap:round; stroke-linejoin:round; stroke-width:4; stroke-opacity:1; fill:none" points="2203.01,386.977 2322.53,386.977 2322.53,231.457 2203.01,231.457 2203.01,386.977 "/>
<polyline clip-path="url(#clip520)" style="stroke:#009af9; stroke-linecap:round; stroke-linejoin:round; stroke-width:4; stroke-opacity:1; fill:none" points="2213.09,283.297 2273.55,283.297 "/>
<path clip-path="url(#clip520)" d="M2310.63 293.836 L2305.36 293.695 L2299.6 293.836 L2299.6 291.587 L2301.47 291.587 L2296.2 285.357 L2291.54 290.58 L2291.21 291.049 Q2291.21 291.26 2291.75 291.423 Q2292.31 291.587 2292.97 291.587 L2292.97 293.836 L2288.03 293.695 L2283.62 293.836 L2283.62 291.587 Q2285.1 291.587 2285.78 291.564 Q2286.48 291.517 2287.28 291.306 Q2288.07 291.096 2288.47 290.674 L2294.75 283.624 L2287.28 274.794 L2283.86 274.794 L2283.86 272.545 L2289.15 272.686 L2294.94 272.545 L2294.94 274.794 L2293.01 274.794 L2297.72 280.298 L2301.75 275.801 Q2301.77 275.777 2302.15 275.215 Q2301.4 274.794 2300.32 274.794 L2300.32 272.545 L2305.26 272.686 L2309.67 272.545 L2309.67 274.794 Q2307.75 274.794 2306.74 274.934 Q2305.76 275.051 2305.45 275.215 Q2305.17 275.379 2304.77 275.801 L2299.17 282.031 L2307.23 291.587 L2310.63 291.587 L2310.63 293.836 Z" fill="#000000" fill-rule="nonzero" fill-opacity="1" /><polyline clip-path="url(#clip520)" style="stroke:#e26f46; stroke-linecap:round; stroke-linejoin:round; stroke-width:3; stroke-opacity:1; fill:none" stroke-dasharray="12, 6, 2, 6" points="2213.09,335.137 2273.55,335.137 "/>
<path clip-path="url(#clip520)" d="M2306.21 323.615 L2305.8 324.287 Q2303.26 323.189 2300.09 321.434 Q2296.93 323.189 2294.39 324.287 L2293.99 323.615 Q2296.76 321.205 2300.09 319.352 Q2303.45 321.221 2306.21 323.615 Z" fill="#000000" fill-rule="nonzero" fill-opacity="1" /><path clip-path="url(#clip520)" d="M2310.63 350.681 L2305.36 350.54 L2299.6 350.681 L2299.6 348.432 L2301.47 348.432 L2296.2 342.202 L2291.54 347.425 L2291.21 347.893 Q2291.21 348.104 2291.75 348.268 Q2292.31 348.432 2292.97 348.432 L2292.97 350.681 L2288.03 350.54 L2283.62 350.681 L2283.62 348.432 Q2285.1 348.432 2285.78 348.409 Q2286.48 348.362 2287.28 348.151 Q2288.07 347.94 2288.47 347.519 L2294.75 340.468 L2287.28 331.638 L2283.86 331.638 L2283.86 329.39 L2289.15 329.53 L2294.94 329.39 L2294.94 331.638 L2293.01 331.638 L2297.72 337.142 L2301.75 332.645 Q2301.77 332.622 2302.15 332.06 Q2301.4 331.638 2300.32 331.638 L2300.32 329.39 L2305.26 329.53 L2309.67 329.39 L2309.67 331.638 Q2307.75 331.638 2306.74 331.779 Q2305.76 331.896 2305.45 332.06 Q2305.17 332.224 2304.77 332.645 L2299.17 338.876 L2307.23 348.432 L2310.63 348.432 L2310.63 350.681 Z" fill="#000000" fill-rule="nonzero" fill-opacity="1" /><path clip-path="url(#clip520)" d="M1445.91 910.936 L2352.76 910.936 L2352.76 559.488 L1445.91 559.488  Z" fill="#ffffff" fill-rule="evenodd" fill-opacity="1"/>
<defs>
  <clipPath id="clip524">
    <rect x="1445" y="559" width="908" height="352"/>
  </clipPath>
</defs>
<polyline clip-path="url(#clip524)" style="stroke:#000000; stroke-linecap:round; stroke-linejoin:round; stroke-width:2; stroke-opacity:0.1; fill:none" points="1471.57,910.936 1471.57,559.488 "/>
<polyline clip-path="url(#clip524)" style="stroke:#000000; stroke-linecap:round; stroke-linejoin:round; stroke-width:2; stroke-opacity:0.1; fill:none" points="1723.2,910.936 1723.2,559.488 "/>
<polyline clip-path="url(#clip524)" style="stroke:#000000; stroke-linecap:round; stroke-linejoin:round; stroke-width:2; stroke-opacity:0.1; fill:none" points="1974.82,910.936 1974.82,559.488 "/>
<polyline clip-path="url(#clip524)" style="stroke:#000000; stroke-linecap:round; stroke-linejoin:round; stroke-width:2; stroke-opacity:0.1; fill:none" points="2226.44,910.936 2226.44,559.488 "/>
<polyline clip-path="url(#clip524)" style="stroke:#000000; stroke-linecap:round; stroke-linejoin:round; stroke-width:2; stroke-opacity:0.1; fill:none" points="1445.91,848.051 2352.76,848.051 "/>
<polyline clip-path="url(#clip524)" style="stroke:#000000; stroke-linecap:round; stroke-linejoin:round; stroke-width:2; stroke-opacity:0.1; fill:none" points="1445.91,778.521 2352.76,778.521 "/>
<polyline clip-path="url(#clip524)" style="stroke:#000000; stroke-linecap:round; stroke-linejoin:round; stroke-width:2; stroke-opacity:0.1; fill:none" points="1445.91,708.991 2352.76,708.991 "/>
<polyline clip-path="url(#clip524)" style="stroke:#000000; stroke-linecap:round; stroke-linejoin:round; stroke-width:2; stroke-opacity:0.1; fill:none" points="1445.91,639.461 2352.76,639.461 "/>
<polyline clip-path="url(#clip524)" style="stroke:#000000; stroke-linecap:round; stroke-linejoin:round; stroke-width:2; stroke-opacity:0.1; fill:none" points="1445.91,569.931 2352.76,569.931 "/>
<polyline clip-path="url(#clip520)" style="stroke:#000000; stroke-linecap:round; stroke-linejoin:round; stroke-width:4; stroke-opacity:1; fill:none" points="1445.91,910.936 2352.76,910.936 "/>
<polyline clip-path="url(#clip520)" style="stroke:#000000; stroke-linecap:round; stroke-linejoin:round; stroke-width:4; stroke-opacity:1; fill:none" points="1471.57,910.936 1471.57,892.038 "/>
<polyline clip-path="url(#clip520)" style="stroke:#000000; stroke-linecap:round; stroke-linejoin:round; stroke-width:4; stroke-opacity:1; fill:none" points="1723.2,910.936 1723.2,892.038 "/>
<polyline clip-path="url(#clip520)" style="stroke:#000000; stroke-linecap:round; stroke-linejoin:round; stroke-width:4; stroke-opacity:1; fill:none" points="1974.82,910.936 1974.82,892.038 "/>
<polyline clip-path="url(#clip520)" style="stroke:#000000; stroke-linecap:round; stroke-linejoin:round; stroke-width:4; stroke-opacity:1; fill:none" points="2226.44,910.936 2226.44,892.038 "/>
<path clip-path="url(#clip520)" d="M1471.57 941.855 Q1467.96 941.855 1466.13 945.419 Q1464.33 948.961 1464.33 956.091 Q1464.33 963.197 1466.13 966.762 Q1467.96 970.303 1471.57 970.303 Q1475.21 970.303 1477.01 966.762 Q1478.84 963.197 1478.84 956.091 Q1478.84 948.961 1477.01 945.419 Q1475.21 941.855 1471.57 941.855 M1471.57 938.151 Q1477.38 938.151 1480.44 942.757 Q1483.52 947.341 1483.52 956.091 Q1483.52 964.817 1480.44 969.424 Q1477.38 974.007 1471.57 974.007 Q1465.76 974.007 1462.68 969.424 Q1459.63 964.817 1459.63 956.091 Q1459.63 947.341 1462.68 942.757 Q1465.76 938.151 1471.57 938.151 Z" fill="#000000" fill-rule="nonzero" fill-opacity="1" /><path clip-path="url(#clip520)" d="M1713.58 969.401 L1721.22 969.401 L1721.22 943.035 L1712.91 944.702 L1712.91 940.443 L1721.17 938.776 L1725.85 938.776 L1725.85 969.401 L1733.49 969.401 L1733.49 973.336 L1713.58 973.336 L1713.58 969.401 Z" fill="#000000" fill-rule="nonzero" fill-opacity="1" /><path clip-path="url(#clip520)" d="M1969.47 969.401 L1985.79 969.401 L1985.79 973.336 L1963.85 973.336 L1963.85 969.401 Q1966.51 966.646 1971.09 962.016 Q1975.7 957.364 1976.88 956.021 Q1979.12 953.498 1980 951.762 Q1980.91 950.003 1980.91 948.313 Q1980.91 945.558 1978.96 943.822 Q1977.04 942.086 1973.94 942.086 Q1971.74 942.086 1969.29 942.85 Q1966.86 943.614 1964.08 945.165 L1964.08 940.443 Q1966.9 939.308 1969.36 938.73 Q1971.81 938.151 1973.85 938.151 Q1979.22 938.151 1982.41 940.836 Q1985.61 943.521 1985.61 948.012 Q1985.61 950.142 1984.8 952.063 Q1984.01 953.961 1981.9 956.554 Q1981.32 957.225 1978.22 960.442 Q1975.12 963.637 1969.47 969.401 Z" fill="#000000" fill-rule="nonzero" fill-opacity="1" /><path clip-path="url(#clip520)" d="M2230.69 954.702 Q2234.05 955.419 2235.92 957.688 Q2237.82 959.956 2237.82 963.29 Q2237.82 968.405 2234.3 971.206 Q2230.78 974.007 2224.3 974.007 Q2222.12 974.007 2219.81 973.567 Q2217.52 973.151 2215.06 972.294 L2215.06 967.78 Q2217.01 968.915 2219.32 969.493 Q2221.64 970.072 2224.16 970.072 Q2228.56 970.072 2230.85 968.336 Q2233.17 966.6 2233.17 963.29 Q2233.17 960.234 2231.01 958.521 Q2228.88 956.785 2225.06 956.785 L2221.04 956.785 L2221.04 952.942 L2225.25 952.942 Q2228.7 952.942 2230.53 951.577 Q2232.36 950.188 2232.36 947.595 Q2232.36 944.933 2230.46 943.521 Q2228.58 942.086 2225.06 942.086 Q2223.14 942.086 2220.94 942.503 Q2218.74 942.919 2216.11 943.799 L2216.11 939.632 Q2218.77 938.892 2221.08 938.521 Q2223.42 938.151 2225.48 938.151 Q2230.8 938.151 2233.91 940.581 Q2237.01 942.989 2237.01 947.109 Q2237.01 949.979 2235.36 951.97 Q2233.72 953.938 2230.69 954.702 Z" fill="#000000" fill-rule="nonzero" fill-opacity="1" /><polyline clip-path="url(#clip520)" style="stroke:#000000; stroke-linecap:round; stroke-linejoin:round; stroke-width:4; stroke-opacity:1; fill:none" points="1445.91,910.936 1445.91,559.488 "/>
<polyline clip-path="url(#clip520)" style="stroke:#000000; stroke-linecap:round; stroke-linejoin:round; stroke-width:4; stroke-opacity:1; fill:none" points="1445.91,848.051 1464.81,848.051 "/>
<polyline clip-path="url(#clip520)" style="stroke:#000000; stroke-linecap:round; stroke-linejoin:round; stroke-width:4; stroke-opacity:1; fill:none" points="1445.91,778.521 1464.81,778.521 "/>
<polyline clip-path="url(#clip520)" style="stroke:#000000; stroke-linecap:round; stroke-linejoin:round; stroke-width:4; stroke-opacity:1; fill:none" points="1445.91,708.991 1464.81,708.991 "/>
<polyline clip-path="url(#clip520)" style="stroke:#000000; stroke-linecap:round; stroke-linejoin:round; stroke-width:4; stroke-opacity:1; fill:none" points="1445.91,639.461 1464.81,639.461 "/>
<polyline clip-path="url(#clip520)" style="stroke:#000000; stroke-linecap:round; stroke-linejoin:round; stroke-width:4; stroke-opacity:1; fill:none" points="1445.91,569.931 1464.81,569.931 "/>
<path clip-path="url(#clip520)" d="M1352.73 833.85 Q1349.12 833.85 1347.29 837.415 Q1345.49 840.957 1345.49 848.086 Q1345.49 855.193 1347.29 858.757 Q1349.12 862.299 1352.73 862.299 Q1356.37 862.299 1358.17 858.757 Q1360 855.193 1360 848.086 Q1360 840.957 1358.17 837.415 Q1356.37 833.85 1352.73 833.85 M1352.73 830.146 Q1358.54 830.146 1361.6 834.753 Q1364.68 839.336 1364.68 848.086 Q1364.68 856.813 1361.6 861.419 Q1358.54 866.003 1352.73 866.003 Q1346.92 866.003 1343.84 861.419 Q1340.79 856.813 1340.79 848.086 Q1340.79 839.336 1343.84 834.753 Q1346.92 830.146 1352.73 830.146 Z" fill="#000000" fill-rule="nonzero" fill-opacity="1" /><path clip-path="url(#clip520)" d="M1372.89 859.452 L1377.78 859.452 L1377.78 865.331 L1372.89 865.331 L1372.89 859.452 Z" fill="#000000" fill-rule="nonzero" fill-opacity="1" /><path clip-path="url(#clip520)" d="M1397.96 833.85 Q1394.35 833.85 1392.52 837.415 Q1390.72 840.957 1390.72 848.086 Q1390.72 855.193 1392.52 858.757 Q1394.35 862.299 1397.96 862.299 Q1401.6 862.299 1403.4 858.757 Q1405.23 855.193 1405.23 848.086 Q1405.23 840.957 1403.4 837.415 Q1401.6 833.85 1397.96 833.85 M1397.96 830.146 Q1403.77 830.146 1406.83 834.753 Q1409.91 839.336 1409.91 848.086 Q1409.91 856.813 1406.83 861.419 Q1403.77 866.003 1397.96 866.003 Q1392.15 866.003 1389.07 861.419 Q1386.02 856.813 1386.02 848.086 Q1386.02 839.336 1389.07 834.753 Q1392.15 830.146 1397.96 830.146 Z" fill="#000000" fill-rule="nonzero" fill-opacity="1" /><path clip-path="url(#clip520)" d="M1353.38 764.32 Q1349.77 764.32 1347.94 767.885 Q1346.13 771.426 1346.13 778.556 Q1346.13 785.662 1347.94 789.227 Q1349.77 792.769 1353.38 792.769 Q1357.01 792.769 1358.82 789.227 Q1360.65 785.662 1360.65 778.556 Q1360.65 771.426 1358.82 767.885 Q1357.01 764.32 1353.38 764.32 M1353.38 760.616 Q1359.19 760.616 1362.25 765.223 Q1365.32 769.806 1365.32 778.556 Q1365.32 787.283 1362.25 791.889 Q1359.19 796.473 1353.38 796.473 Q1347.57 796.473 1344.49 791.889 Q1341.44 787.283 1341.44 778.556 Q1341.44 769.806 1344.49 765.223 Q1347.57 760.616 1353.38 760.616 Z" fill="#000000" fill-rule="nonzero" fill-opacity="1" /><path clip-path="url(#clip520)" d="M1373.54 789.922 L1378.43 789.922 L1378.43 795.801 L1373.54 795.801 L1373.54 789.922 Z" fill="#000000" fill-rule="nonzero" fill-opacity="1" /><path clip-path="url(#clip520)" d="M1402.78 777.167 Q1406.13 777.885 1408.01 780.153 Q1409.91 782.422 1409.91 785.755 Q1409.91 790.871 1406.39 793.672 Q1402.87 796.473 1396.39 796.473 Q1394.21 796.473 1391.9 796.033 Q1389.61 795.616 1387.15 794.76 L1387.15 790.246 Q1389.1 791.38 1391.41 791.959 Q1393.73 792.537 1396.25 792.537 Q1400.65 792.537 1402.94 790.801 Q1405.26 789.065 1405.26 785.755 Q1405.26 782.699 1403.1 780.987 Q1400.97 779.25 1397.15 779.25 L1393.13 779.25 L1393.13 775.408 L1397.34 775.408 Q1400.79 775.408 1402.62 774.042 Q1404.44 772.653 1404.44 770.061 Q1404.44 767.399 1402.55 765.987 Q1400.67 764.551 1397.15 764.551 Q1395.23 764.551 1393.03 764.968 Q1390.83 765.385 1388.19 766.264 L1388.19 762.098 Q1390.86 761.357 1393.17 760.987 Q1395.51 760.616 1397.57 760.616 Q1402.89 760.616 1406 763.047 Q1409.1 765.454 1409.1 769.575 Q1409.1 772.445 1407.45 774.436 Q1405.81 776.403 1402.78 777.167 Z" fill="#000000" fill-rule="nonzero" fill-opacity="1" /><path clip-path="url(#clip520)" d="M1352.57 694.79 Q1348.96 694.79 1347.13 698.355 Q1345.32 701.896 1345.32 709.026 Q1345.32 716.132 1347.13 719.697 Q1348.96 723.239 1352.57 723.239 Q1356.2 723.239 1358.01 719.697 Q1359.84 716.132 1359.84 709.026 Q1359.84 701.896 1358.01 698.355 Q1356.2 694.79 1352.57 694.79 M1352.57 691.086 Q1358.38 691.086 1361.44 695.693 Q1364.51 700.276 1364.51 709.026 Q1364.51 717.753 1361.44 722.359 Q1358.38 726.942 1352.57 726.942 Q1346.76 726.942 1343.68 722.359 Q1340.63 717.753 1340.63 709.026 Q1340.63 700.276 1343.68 695.693 Q1346.76 691.086 1352.57 691.086 Z" fill="#000000" fill-rule="nonzero" fill-opacity="1" /><path clip-path="url(#clip520)" d="M1372.73 720.391 L1377.62 720.391 L1377.62 726.271 L1372.73 726.271 L1372.73 720.391 Z" fill="#000000" fill-rule="nonzero" fill-opacity="1" /><path clip-path="url(#clip520)" d="M1398.38 707.128 Q1395.23 707.128 1393.38 709.28 Q1391.55 711.433 1391.55 715.183 Q1391.55 718.91 1393.38 721.086 Q1395.23 723.239 1398.38 723.239 Q1401.53 723.239 1403.36 721.086 Q1405.21 718.91 1405.21 715.183 Q1405.21 711.433 1403.36 709.28 Q1401.53 707.128 1398.38 707.128 M1407.66 692.475 L1407.66 696.734 Q1405.9 695.901 1404.1 695.461 Q1402.32 695.021 1400.56 695.021 Q1395.93 695.021 1393.47 698.146 Q1391.04 701.271 1390.69 707.591 Q1392.06 705.577 1394.12 704.512 Q1396.18 703.424 1398.66 703.424 Q1403.87 703.424 1406.88 706.595 Q1409.91 709.743 1409.91 715.183 Q1409.91 720.507 1406.76 723.725 Q1403.61 726.942 1398.38 726.942 Q1392.38 726.942 1389.21 722.359 Q1386.04 717.753 1386.04 709.026 Q1386.04 700.831 1389.93 695.97 Q1393.82 691.086 1400.37 691.086 Q1402.13 691.086 1403.91 691.433 Q1405.72 691.781 1407.66 692.475 Z" fill="#000000" fill-rule="nonzero" fill-opacity="1" /><path clip-path="url(#clip520)" d="M1352.92 625.26 Q1349.31 625.26 1347.48 628.824 Q1345.67 632.366 1345.67 639.496 Q1345.67 646.602 1347.48 650.167 Q1349.31 653.709 1352.92 653.709 Q1356.55 653.709 1358.36 650.167 Q1360.19 646.602 1360.19 639.496 Q1360.19 632.366 1358.36 628.824 Q1356.55 625.26 1352.92 625.26 M1352.92 621.556 Q1358.73 621.556 1361.78 626.162 Q1364.86 630.746 1364.86 639.496 Q1364.86 648.222 1361.78 652.829 Q1358.73 657.412 1352.92 657.412 Q1347.11 657.412 1344.03 652.829 Q1340.97 648.222 1340.97 639.496 Q1340.97 630.746 1344.03 626.162 Q1347.11 621.556 1352.92 621.556 Z" fill="#000000" fill-rule="nonzero" fill-opacity="1" /><path clip-path="url(#clip520)" d="M1373.08 650.861 L1377.96 650.861 L1377.96 656.741 L1373.08 656.741 L1373.08 650.861 Z" fill="#000000" fill-rule="nonzero" fill-opacity="1" /><path clip-path="url(#clip520)" d="M1388.29 656.023 L1388.29 651.764 Q1390.05 652.597 1391.85 653.037 Q1393.66 653.477 1395.39 653.477 Q1400.02 653.477 1402.45 650.375 Q1404.91 647.25 1405.26 640.908 Q1403.91 642.898 1401.85 643.963 Q1399.79 645.028 1397.29 645.028 Q1392.11 645.028 1389.07 641.903 Q1386.07 638.755 1386.07 633.315 Q1386.07 627.991 1389.21 624.774 Q1392.36 621.556 1397.59 621.556 Q1403.59 621.556 1406.74 626.162 Q1409.91 630.746 1409.91 639.496 Q1409.91 647.667 1406.02 652.551 Q1402.15 657.412 1395.6 657.412 Q1393.84 657.412 1392.04 657.065 Q1390.23 656.718 1388.29 656.023 M1397.59 641.371 Q1400.74 641.371 1402.57 639.218 Q1404.42 637.065 1404.42 633.315 Q1404.42 629.588 1402.57 627.436 Q1400.74 625.26 1397.59 625.26 Q1394.44 625.26 1392.59 627.436 Q1390.76 629.588 1390.76 633.315 Q1390.76 637.065 1392.59 639.218 Q1394.44 641.371 1397.59 641.371 Z" fill="#000000" fill-rule="nonzero" fill-opacity="1" /><path clip-path="url(#clip520)" d="M1345.14 583.276 L1352.78 583.276 L1352.78 556.91 L1344.47 558.577 L1344.47 554.317 L1352.73 552.651 L1357.41 552.651 L1357.41 583.276 L1365.05 583.276 L1365.05 587.211 L1345.14 587.211 L1345.14 583.276 Z" fill="#000000" fill-rule="nonzero" fill-opacity="1" /><path clip-path="url(#clip520)" d="M1374.49 581.331 L1379.38 581.331 L1379.38 587.211 L1374.49 587.211 L1374.49 581.331 Z" fill="#000000" fill-rule="nonzero" fill-opacity="1" /><path clip-path="url(#clip520)" d="M1393.59 583.276 L1409.91 583.276 L1409.91 587.211 L1387.96 587.211 L1387.96 583.276 Q1390.63 580.521 1395.21 575.891 Q1399.82 571.239 1401 569.896 Q1403.24 567.373 1404.12 565.637 Q1405.02 563.878 1405.02 562.188 Q1405.02 559.433 1403.08 557.697 Q1401.16 555.961 1398.06 555.961 Q1395.86 555.961 1393.4 556.725 Q1390.97 557.489 1388.19 559.04 L1388.19 554.317 Q1391.02 553.183 1393.47 552.604 Q1395.93 552.026 1397.96 552.026 Q1403.33 552.026 1406.53 554.711 Q1409.72 557.396 1409.72 561.887 Q1409.72 564.016 1408.91 565.938 Q1408.13 567.836 1406.02 570.428 Q1405.44 571.1 1402.34 574.317 Q1399.24 577.512 1393.59 583.276 Z" fill="#000000" fill-rule="nonzero" fill-opacity="1" /><path clip-path="url(#clip520)" d="M1265.64 831.559 Q1268.64 831.559 1274.44 833.072 Q1276.95 833.684 1279.23 834.522 Q1281.49 835.327 1283.68 836.518 Q1285.87 837.71 1287.45 839.095 Q1288.99 840.48 1289.96 842.283 Q1290.92 844.087 1290.92 846.084 Q1290.92 849.24 1289.06 851.108 Q1287.16 852.943 1283.9 853.523 Q1290.92 857.839 1290.92 863.604 Q1290.92 867.178 1288.38 868.853 Q1285.8 870.528 1281.49 870.528 Q1277.85 870.528 1274.08 869.562 Q1266.93 867.726 1261.94 864.151 Q1261.36 863.668 1261.36 862.959 Q1261.36 862.541 1261.49 862.347 Q1261.84 861.768 1262.42 861.768 Q1262.84 861.768 1263.26 862.09 Q1266.38 864.344 1269.06 865.826 Q1271.73 867.307 1274.44 867.984 Q1276.75 868.499 1278.72 868.499 Q1282.04 868.499 1284.1 867.082 Q1286.16 865.632 1286.16 862.766 Q1286.16 860.125 1284.52 857.806 Q1282.84 855.488 1280.04 853.781 Q1276.98 853.684 1274.08 852.943 Q1270.99 852.267 1270.99 850.689 Q1270.99 849.433 1272.7 849.433 Q1273.28 849.433 1274.44 849.691 Q1277.49 850.399 1280.23 851.687 Q1282.91 851.236 1284.55 849.562 Q1286.16 847.887 1286.16 845.214 Q1286.16 842.734 1284.35 840.544 Q1282.55 838.322 1279.91 836.905 Q1277.24 835.456 1274.08 834.65 Q1273.02 834.393 1271.67 834.393 Q1268.06 834.393 1265.84 836.905 Q1265.13 837.613 1264.19 837.613 Q1263.1 837.613 1262.1 836.712 Q1261.04 835.649 1261.04 834.393 Q1261.04 833.459 1261.62 832.879 Q1262.78 831.559 1265.64 831.559 Z" fill="#000000" fill-rule="nonzero" fill-opacity="1" /><path clip-path="url(#clip520)" d="M1240.72 788.989 Q1248.04 793.255 1255.2 795.323 Q1262.37 797.392 1269.72 797.392 Q1277.07 797.392 1284.3 795.323 Q1291.49 793.223 1298.78 788.989 L1298.78 794.082 Q1291.3 798.856 1284.07 801.243 Q1276.85 803.599 1269.72 803.599 Q1262.62 803.599 1255.43 801.243 Q1248.23 798.888 1240.72 794.082 L1240.72 788.989 Z" fill="#000000" fill-rule="nonzero" fill-opacity="1" /><path clip-path="url(#clip520)" d="M1260.01 756.97 Q1259.44 757.957 1259.18 759.134 Q1258.9 760.28 1258.9 761.681 Q1258.9 766.646 1262.14 769.319 Q1265.36 771.961 1271.41 771.961 L1290.18 771.961 L1290.18 777.85 L1254.54 777.85 L1254.54 771.961 L1260.07 771.961 Q1256.83 770.115 1255.27 767.155 Q1253.68 764.195 1253.68 759.962 Q1253.68 759.357 1253.77 758.625 Q1253.84 757.893 1254 757.002 L1260.01 756.97 Z" fill="#000000" fill-rule="nonzero" fill-opacity="1" /><path clip-path="url(#clip520)" d="M1272.26 734.626 Q1272.26 741.724 1273.89 744.461 Q1275.51 747.199 1279.43 747.199 Q1282.55 747.199 1284.39 745.162 Q1286.21 743.093 1286.21 739.56 Q1286.21 734.69 1282.77 731.762 Q1279.3 728.802 1273.57 728.802 L1272.26 728.802 L1272.26 734.626 M1269.85 722.945 L1290.18 722.945 L1290.18 728.802 L1284.77 728.802 Q1288.02 730.807 1289.58 733.799 Q1291.11 736.791 1291.11 741.119 Q1291.11 746.594 1288.05 749.84 Q1284.96 753.055 1279.81 753.055 Q1273.79 753.055 1270.74 749.045 Q1267.68 745.002 1267.68 737.013 L1267.68 728.802 L1267.11 728.802 Q1263.07 728.802 1260.87 731.475 Q1258.64 734.117 1258.64 738.923 Q1258.64 741.979 1259.37 744.875 Q1260.11 747.772 1261.57 750.445 L1256.16 750.445 Q1254.92 747.23 1254.31 744.207 Q1253.68 741.183 1253.68 738.318 Q1253.68 730.584 1257.69 726.765 Q1261.7 722.945 1269.85 722.945 Z" fill="#000000" fill-rule="nonzero" fill-opacity="1" /><path clip-path="url(#clip520)" d="M1259.95 687.425 L1240.66 687.425 L1240.66 681.568 L1290.18 681.568 L1290.18 687.425 L1284.84 687.425 Q1288.02 689.271 1289.58 692.103 Q1291.11 694.904 1291.11 698.851 Q1291.11 705.312 1285.95 709.386 Q1280.79 713.429 1272.39 713.429 Q1263.99 713.429 1258.83 709.386 Q1253.68 705.312 1253.68 698.851 Q1253.68 694.904 1255.24 692.103 Q1256.76 689.271 1259.95 687.425 M1272.39 707.381 Q1278.85 707.381 1282.55 704.739 Q1286.21 702.066 1286.21 697.419 Q1286.21 692.772 1282.55 690.098 Q1278.85 687.425 1272.39 687.425 Q1265.93 687.425 1262.27 690.098 Q1258.58 692.772 1258.58 697.419 Q1258.58 702.066 1262.27 704.739 Q1265.93 707.381 1272.39 707.381 Z" fill="#000000" fill-rule="nonzero" fill-opacity="1" /><path clip-path="url(#clip520)" d="M1242.66 659.097 L1242.66 653.686 L1296.23 670.237 L1296.23 675.648 L1242.66 659.097 Z" fill="#000000" fill-rule="nonzero" fill-opacity="1" /><path clip-path="url(#clip520)" d="M1255.59 624.818 L1261.12 624.818 Q1259.85 627.301 1259.21 629.974 Q1258.58 632.648 1258.58 635.512 Q1258.58 639.873 1259.92 642.069 Q1261.25 644.233 1263.93 644.233 Q1265.96 644.233 1267.14 642.674 Q1268.29 641.114 1269.34 636.404 L1269.78 634.398 Q1271.12 628.16 1273.57 625.55 Q1275.99 622.908 1280.35 622.908 Q1285.31 622.908 1288.21 626.855 Q1291.11 630.77 1291.11 637.645 Q1291.11 640.509 1290.53 643.629 Q1289.99 646.716 1288.88 650.153 L1282.83 650.153 Q1284.52 646.907 1285.38 643.756 Q1286.21 640.605 1286.21 637.517 Q1286.21 633.38 1284.81 631.152 Q1283.37 628.924 1280.79 628.924 Q1278.41 628.924 1277.13 630.547 Q1275.86 632.138 1274.68 637.581 L1274.21 639.618 Q1273.06 645.061 1270.71 647.48 Q1268.32 649.899 1264.18 649.899 Q1259.15 649.899 1256.41 646.334 Q1253.68 642.769 1253.68 636.213 Q1253.68 632.966 1254.15 630.101 Q1254.63 627.237 1255.59 624.818 Z" fill="#000000" fill-rule="nonzero" fill-opacity="1" /><path clip-path="url(#clip520)" d="M1240.72 614.505 L1240.72 609.413 Q1248.23 604.639 1255.43 602.283 Q1262.62 599.896 1269.72 599.896 Q1276.85 599.896 1284.07 602.283 Q1291.3 604.639 1298.78 609.413 L1298.78 614.505 Q1291.49 610.272 1284.3 608.203 Q1277.07 606.103 1269.72 606.103 Q1262.37 606.103 1255.2 608.203 Q1248.04 610.272 1240.72 614.505 Z" fill="#000000" fill-rule="nonzero" fill-opacity="1" /><polyline clip-path="url(#clip524)" style="stroke:#009af9; stroke-linecap:round; stroke-linejoin:round; stroke-width:4; stroke-opacity:1; fill:none" points="1471.57,848.051 1496.74,665.574 1521.9,589.257 1547.06,591.279 1572.22,639.435 1597.38,705.66 1622.55,770.36 1647.71,822.7 1672.87,858.676 1698.03,878.737 1723.2,885.787 1748.36,883.72 1773.52,876.424 1798.68,867.159 1823.85,858.265 1849.01,851.113 1874.17,846.248 1899.33,843.606 1924.49,842.768 1949.66,843.167 1974.82,844.248 1999.98,845.556 2025.14,846.777 2050.31,847.736 2075.47,848.372 2100.63,848.703 2125.79,848.792 2150.95,848.719 2176.12,848.561 2201.28,848.377 2226.44,848.21 2251.6,848.081 2276.77,847.998 2301.93,847.957 2327.09,847.948 "/>
<polyline clip-path="url(#clip524)" style="stroke:#e26f46; stroke-linecap:round; stroke-linejoin:round; stroke-width:3; stroke-opacity:1; fill:none" stroke-dasharray="12, 6, 2, 6" points="1471.57,848.051 1496.74,645.49 1521.9,569.435 1547.06,595.164 1572.22,631.686 1597.38,694.884 1622.55,767.133 1647.71,839.368 1672.87,871.864 1698.03,899.89 1723.2,900.989 1748.36,894.56 1773.52,883.942 1798.68,864.621 1823.85,870.74 1849.01,860.48 1874.17,847.38 1899.33,846.135 1924.49,823.541 1949.66,860.325 1974.82,850.576 1999.98,853.641 2025.14,836.339 2050.31,839.878 2075.47,856.29 2100.63,852.778 2125.79,846.764 2150.95,838.413 2176.12,850.729 2201.28,860.506 2226.44,843.062 2251.6,836.375 2276.77,859.67 2301.93,850.52 2327.09,848.205 "/>
<path clip-path="url(#clip520)" d="M2203.01 726.723 L2322.53 726.723 L2322.53 571.203 L2203.01 571.203  Z" fill="#ffffff" fill-rule="evenodd" fill-opacity="1"/>
<polyline clip-path="url(#clip520)" style="stroke:#000000; stroke-linecap:round; stroke-linejoin:round; stroke-width:4; stroke-opacity:1; fill:none" points="2203.01,726.723 2322.53,726.723 2322.53,571.203 2203.01,571.203 2203.01,726.723 "/>
<polyline clip-path="url(#clip520)" style="stroke:#009af9; stroke-linecap:round; stroke-linejoin:round; stroke-width:4; stroke-opacity:1; fill:none" points="2213.09,623.043 2273.55,623.043 "/>
<path clip-path="url(#clip520)" d="M2310.63 633.582 L2305.36 633.442 L2299.6 633.582 L2299.6 631.334 L2301.47 631.334 L2296.2 625.103 L2291.54 630.326 L2291.21 630.795 Q2291.21 631.006 2291.75 631.17 Q2292.31 631.334 2292.97 631.334 L2292.97 633.582 L2288.03 633.442 L2283.62 633.582 L2283.62 631.334 Q2285.1 631.334 2285.78 631.31 Q2286.48 631.263 2287.28 631.052 Q2288.07 630.842 2288.47 630.42 L2294.75 623.37 L2287.28 614.54 L2283.86 614.54 L2283.86 612.291 L2289.15 612.432 L2294.94 612.291 L2294.94 614.54 L2293.01 614.54 L2297.72 620.044 L2301.75 615.547 Q2301.77 615.523 2302.15 614.961 Q2301.4 614.54 2300.32 614.54 L2300.32 612.291 L2305.26 612.432 L2309.67 612.291 L2309.67 614.54 Q2307.75 614.54 2306.74 614.68 Q2305.76 614.797 2305.45 614.961 Q2305.17 615.125 2304.77 615.547 L2299.17 621.777 L2307.23 631.334 L2310.63 631.334 L2310.63 633.582 Z" fill="#000000" fill-rule="nonzero" fill-opacity="1" /><polyline clip-path="url(#clip520)" style="stroke:#e26f46; stroke-linecap:round; stroke-linejoin:round; stroke-width:3; stroke-opacity:1; fill:none" stroke-dasharray="12, 6, 2, 6" points="2213.09,674.883 2273.55,674.883 "/>
<path clip-path="url(#clip520)" d="M2306.21 663.361 L2305.8 664.033 Q2303.26 662.935 2300.09 661.18 Q2296.93 662.935 2294.39 664.033 L2293.99 663.361 Q2296.76 660.951 2300.09 659.098 Q2303.45 660.967 2306.21 663.361 Z" fill="#000000" fill-rule="nonzero" fill-opacity="1" /><path clip-path="url(#clip520)" d="M2310.63 690.427 L2305.36 690.286 L2299.6 690.427 L2299.6 688.178 L2301.47 688.178 L2296.2 681.948 L2291.54 687.171 L2291.21 687.639 Q2291.21 687.85 2291.75 688.014 Q2292.31 688.178 2292.97 688.178 L2292.97 690.427 L2288.03 690.286 L2283.62 690.427 L2283.62 688.178 Q2285.1 688.178 2285.78 688.155 Q2286.48 688.108 2287.28 687.897 Q2288.07 687.686 2288.47 687.265 L2294.75 680.214 L2287.28 671.384 L2283.86 671.384 L2283.86 669.136 L2289.15 669.276 L2294.94 669.136 L2294.94 671.384 L2293.01 671.384 L2297.72 676.888 L2301.75 672.391 Q2301.77 672.368 2302.15 671.806 Q2301.4 671.384 2300.32 671.384 L2300.32 669.136 L2305.26 669.276 L2309.67 669.136 L2309.67 671.384 Q2307.75 671.384 2306.74 671.525 Q2305.76 671.642 2305.45 671.806 Q2305.17 671.97 2304.77 672.391 L2299.17 678.622 L2307.23 688.178 L2310.63 688.178 L2310.63 690.427 Z" fill="#000000" fill-rule="nonzero" fill-opacity="1" /><path clip-path="url(#clip520)" d="M1445.91 1423.18 L2352.76 1423.18 L2352.76 1071.73 L1445.91 1071.73  Z" fill="#ffffff" fill-rule="evenodd" fill-opacity="1"/>
<defs>
  <clipPath id="clip525">
    <rect x="1445" y="1071" width="908" height="352"/>
  </clipPath>
</defs>
<polyline clip-path="url(#clip525)" style="stroke:#000000; stroke-linecap:round; stroke-linejoin:round; stroke-width:2; stroke-opacity:0.1; fill:none" points="1471.57,1423.18 1471.57,1071.73 "/>
<polyline clip-path="url(#clip525)" style="stroke:#000000; stroke-linecap:round; stroke-linejoin:round; stroke-width:2; stroke-opacity:0.1; fill:none" points="1723.2,1423.18 1723.2,1071.73 "/>
<polyline clip-path="url(#clip525)" style="stroke:#000000; stroke-linecap:round; stroke-linejoin:round; stroke-width:2; stroke-opacity:0.1; fill:none" points="1974.82,1423.18 1974.82,1071.73 "/>
<polyline clip-path="url(#clip525)" style="stroke:#000000; stroke-linecap:round; stroke-linejoin:round; stroke-width:2; stroke-opacity:0.1; fill:none" points="2226.44,1423.18 2226.44,1071.73 "/>
<polyline clip-path="url(#clip525)" style="stroke:#000000; stroke-linecap:round; stroke-linejoin:round; stroke-width:2; stroke-opacity:0.1; fill:none" points="1445.91,1364.41 2352.76,1364.41 "/>
<polyline clip-path="url(#clip525)" style="stroke:#000000; stroke-linecap:round; stroke-linejoin:round; stroke-width:2; stroke-opacity:0.1; fill:none" points="1445.91,1271.7 2352.76,1271.7 "/>
<polyline clip-path="url(#clip525)" style="stroke:#000000; stroke-linecap:round; stroke-linejoin:round; stroke-width:2; stroke-opacity:0.1; fill:none" points="1445.91,1179 2352.76,1179 "/>
<polyline clip-path="url(#clip525)" style="stroke:#000000; stroke-linecap:round; stroke-linejoin:round; stroke-width:2; stroke-opacity:0.1; fill:none" points="1445.91,1086.29 2352.76,1086.29 "/>
<polyline clip-path="url(#clip520)" style="stroke:#000000; stroke-linecap:round; stroke-linejoin:round; stroke-width:4; stroke-opacity:1; fill:none" points="1445.91,1423.18 2352.76,1423.18 "/>
<polyline clip-path="url(#clip520)" style="stroke:#000000; stroke-linecap:round; stroke-linejoin:round; stroke-width:4; stroke-opacity:1; fill:none" points="1471.57,1423.18 1471.57,1404.28 "/>
<polyline clip-path="url(#clip520)" style="stroke:#000000; stroke-linecap:round; stroke-linejoin:round; stroke-width:4; stroke-opacity:1; fill:none" points="1723.2,1423.18 1723.2,1404.28 "/>
<polyline clip-path="url(#clip520)" style="stroke:#000000; stroke-linecap:round; stroke-linejoin:round; stroke-width:4; stroke-opacity:1; fill:none" points="1974.82,1423.18 1974.82,1404.28 "/>
<polyline clip-path="url(#clip520)" style="stroke:#000000; stroke-linecap:round; stroke-linejoin:round; stroke-width:4; stroke-opacity:1; fill:none" points="2226.44,1423.18 2226.44,1404.28 "/>
<path clip-path="url(#clip520)" d="M1471.57 1454.1 Q1467.96 1454.1 1466.13 1457.66 Q1464.33 1461.2 1464.33 1468.33 Q1464.33 1475.44 1466.13 1479.01 Q1467.96 1482.55 1471.57 1482.55 Q1475.21 1482.55 1477.01 1479.01 Q1478.84 1475.44 1478.84 1468.33 Q1478.84 1461.2 1477.01 1457.66 Q1475.21 1454.1 1471.57 1454.1 M1471.57 1450.39 Q1477.38 1450.39 1480.44 1455 Q1483.52 1459.58 1483.52 1468.33 Q1483.52 1477.06 1480.44 1481.67 Q1477.38 1486.25 1471.57 1486.25 Q1465.76 1486.25 1462.68 1481.67 Q1459.63 1477.06 1459.63 1468.33 Q1459.63 1459.58 1462.68 1455 Q1465.76 1450.39 1471.57 1450.39 Z" fill="#000000" fill-rule="nonzero" fill-opacity="1" /><path clip-path="url(#clip520)" d="M1713.58 1481.64 L1721.22 1481.64 L1721.22 1455.28 L1712.91 1456.95 L1712.91 1452.69 L1721.17 1451.02 L1725.85 1451.02 L1725.85 1481.64 L1733.49 1481.64 L1733.49 1485.58 L1713.58 1485.58 L1713.58 1481.64 Z" fill="#000000" fill-rule="nonzero" fill-opacity="1" /><path clip-path="url(#clip520)" d="M1969.47 1481.64 L1985.79 1481.64 L1985.79 1485.58 L1963.85 1485.58 L1963.85 1481.64 Q1966.51 1478.89 1971.09 1474.26 Q1975.7 1469.61 1976.88 1468.27 Q1979.12 1465.74 1980 1464.01 Q1980.91 1462.25 1980.91 1460.56 Q1980.91 1457.8 1978.96 1456.07 Q1977.04 1454.33 1973.94 1454.33 Q1971.74 1454.33 1969.29 1455.09 Q1966.86 1455.86 1964.08 1457.41 L1964.08 1452.69 Q1966.9 1451.55 1969.36 1450.97 Q1971.81 1450.39 1973.85 1450.39 Q1979.22 1450.39 1982.41 1453.08 Q1985.61 1455.77 1985.61 1460.26 Q1985.61 1462.39 1984.8 1464.31 Q1984.01 1466.2 1981.9 1468.8 Q1981.32 1469.47 1978.22 1472.69 Q1975.12 1475.88 1969.47 1481.64 Z" fill="#000000" fill-rule="nonzero" fill-opacity="1" /><path clip-path="url(#clip520)" d="M2230.69 1466.95 Q2234.05 1467.66 2235.92 1469.93 Q2237.82 1472.2 2237.82 1475.53 Q2237.82 1480.65 2234.3 1483.45 Q2230.78 1486.25 2224.3 1486.25 Q2222.12 1486.25 2219.81 1485.81 Q2217.52 1485.39 2215.06 1484.54 L2215.06 1480.02 Q2217.01 1481.16 2219.32 1481.74 Q2221.64 1482.32 2224.16 1482.32 Q2228.56 1482.32 2230.85 1480.58 Q2233.17 1478.84 2233.17 1475.53 Q2233.17 1472.48 2231.01 1470.77 Q2228.88 1469.03 2225.06 1469.03 L2221.04 1469.03 L2221.04 1465.19 L2225.25 1465.19 Q2228.7 1465.19 2230.53 1463.82 Q2232.36 1462.43 2232.36 1459.84 Q2232.36 1457.18 2230.46 1455.77 Q2228.58 1454.33 2225.06 1454.33 Q2223.14 1454.33 2220.94 1454.75 Q2218.74 1455.16 2216.11 1456.04 L2216.11 1451.88 Q2218.77 1451.14 2221.08 1450.77 Q2223.42 1450.39 2225.48 1450.39 Q2230.8 1450.39 2233.91 1452.83 Q2237.01 1455.23 2237.01 1459.35 Q2237.01 1462.22 2235.36 1464.21 Q2233.72 1466.18 2230.69 1466.95 Z" fill="#000000" fill-rule="nonzero" fill-opacity="1" /><path clip-path="url(#clip520)" d="M1769.5 1520.52 L1809.7 1520.52 L1809.7 1525.93 L1792.83 1525.93 L1792.83 1568.04 L1786.37 1568.04 L1786.37 1525.93 L1769.5 1525.93 L1769.5 1520.52 Z" fill="#000000" fill-rule="nonzero" fill-opacity="1" /><path clip-path="url(#clip520)" d="M1813.65 1532.4 L1819.51 1532.4 L1819.51 1568.04 L1813.65 1568.04 L1813.65 1532.4 M1813.65 1518.52 L1819.51 1518.52 L1819.51 1525.93 L1813.65 1525.93 L1813.65 1518.52 Z" fill="#000000" fill-rule="nonzero" fill-opacity="1" /><path clip-path="url(#clip520)" d="M1859.51 1539.24 Q1861.71 1535.29 1864.77 1533.41 Q1867.82 1531.54 1871.96 1531.54 Q1877.53 1531.54 1880.55 1535.45 Q1883.58 1539.33 1883.58 1546.53 L1883.58 1568.04 L1877.69 1568.04 L1877.69 1546.72 Q1877.69 1541.59 1875.87 1539.11 Q1874.06 1536.63 1870.34 1536.63 Q1865.78 1536.63 1863.14 1539.65 Q1860.5 1542.68 1860.5 1547.9 L1860.5 1568.04 L1854.61 1568.04 L1854.61 1546.72 Q1854.61 1541.56 1852.8 1539.11 Q1850.98 1536.63 1847.2 1536.63 Q1842.71 1536.63 1840.07 1539.68 Q1837.43 1542.71 1837.43 1547.9 L1837.43 1568.04 L1831.54 1568.04 L1831.54 1532.4 L1837.43 1532.4 L1837.43 1537.93 Q1839.43 1534.66 1842.23 1533.1 Q1845.03 1531.54 1848.88 1531.54 Q1852.77 1531.54 1855.47 1533.51 Q1858.21 1535.48 1859.51 1539.24 Z" fill="#000000" fill-rule="nonzero" fill-opacity="1" /><path clip-path="url(#clip520)" d="M1925.75 1548.76 L1925.75 1551.62 L1898.82 1551.62 Q1899.2 1557.67 1902.45 1560.85 Q1905.73 1564 1911.55 1564 Q1914.93 1564 1918.08 1563.17 Q1921.26 1562.35 1924.38 1560.69 L1924.38 1566.23 Q1921.23 1567.57 1917.92 1568.27 Q1914.61 1568.97 1911.2 1568.97 Q1902.67 1568.97 1897.68 1564 Q1892.71 1559.04 1892.71 1550.57 Q1892.71 1541.82 1897.42 1536.69 Q1902.16 1531.54 1910.19 1531.54 Q1917.38 1531.54 1921.55 1536.18 Q1925.75 1540.8 1925.75 1548.76 M1919.89 1547.04 Q1919.83 1542.23 1917.19 1539.37 Q1914.58 1536.5 1910.25 1536.5 Q1905.35 1536.5 1902.39 1539.27 Q1899.46 1542.04 1899.01 1547.07 L1919.89 1547.04 Z" fill="#000000" fill-rule="nonzero" fill-opacity="1" /><path clip-path="url(#clip520)" d="M1970.15 1518.58 Q1965.89 1525.9 1963.82 1533.06 Q1961.75 1540.23 1961.75 1547.58 Q1961.75 1554.93 1963.82 1562.16 Q1965.92 1569.35 1970.15 1576.64 L1965.06 1576.64 Q1960.28 1569.16 1957.9 1561.93 Q1955.54 1554.71 1955.54 1547.58 Q1955.54 1540.48 1957.9 1533.29 Q1960.25 1526.09 1965.06 1518.58 L1970.15 1518.58 Z" fill="#000000" fill-rule="nonzero" fill-opacity="1" /><path clip-path="url(#clip520)" d="M2004.24 1533.45 L2004.24 1538.98 Q2001.76 1537.71 1999.08 1537.07 Q1996.41 1536.44 1993.54 1536.44 Q1989.18 1536.44 1986.99 1537.77 Q1984.82 1539.11 1984.82 1541.79 Q1984.82 1543.82 1986.38 1545 Q1987.94 1546.15 1992.65 1547.2 L1994.66 1547.64 Q2000.9 1548.98 2003.51 1551.43 Q2006.15 1553.85 2006.15 1558.21 Q2006.15 1563.17 2002.2 1566.07 Q1998.29 1568.97 1991.41 1568.97 Q1988.55 1568.97 1985.43 1568.39 Q1982.34 1567.85 1978.9 1566.74 L1978.9 1560.69 Q1982.15 1562.38 1985.3 1563.24 Q1988.45 1564.07 1991.54 1564.07 Q1995.68 1564.07 1997.9 1562.66 Q2000.13 1561.23 2000.13 1558.65 Q2000.13 1556.27 1998.51 1554.99 Q1996.92 1553.72 1991.48 1552.54 L1989.44 1552.07 Q1984 1550.92 1981.58 1548.56 Q1979.16 1546.18 1979.16 1542.04 Q1979.16 1537.01 1982.72 1534.27 Q1986.29 1531.54 1992.84 1531.54 Q1996.09 1531.54 1998.96 1532.01 Q2001.82 1532.49 2004.24 1533.45 Z" fill="#000000" fill-rule="nonzero" fill-opacity="1" /><path clip-path="url(#clip520)" d="M2014.55 1518.58 L2019.64 1518.58 Q2024.42 1526.09 2026.77 1533.29 Q2029.16 1540.48 2029.16 1547.58 Q2029.16 1554.71 2026.77 1561.93 Q2024.42 1569.16 2019.64 1576.64 L2014.55 1576.64 Q2018.78 1569.35 2020.85 1562.16 Q2022.95 1554.93 2022.95 1547.58 Q2022.95 1540.23 2020.85 1533.06 Q2018.78 1525.9 2014.55 1518.58 Z" fill="#000000" fill-rule="nonzero" fill-opacity="1" /><polyline clip-path="url(#clip520)" style="stroke:#000000; stroke-linecap:round; stroke-linejoin:round; stroke-width:4; stroke-opacity:1; fill:none" points="1445.91,1423.18 1445.91,1071.73 "/>
<polyline clip-path="url(#clip520)" style="stroke:#000000; stroke-linecap:round; stroke-linejoin:round; stroke-width:4; stroke-opacity:1; fill:none" points="1445.91,1364.41 1464.81,1364.41 "/>
<polyline clip-path="url(#clip520)" style="stroke:#000000; stroke-linecap:round; stroke-linejoin:round; stroke-width:4; stroke-opacity:1; fill:none" points="1445.91,1271.7 1464.81,1271.7 "/>
<polyline clip-path="url(#clip520)" style="stroke:#000000; stroke-linecap:round; stroke-linejoin:round; stroke-width:4; stroke-opacity:1; fill:none" points="1445.91,1179 1464.81,1179 "/>
<polyline clip-path="url(#clip520)" style="stroke:#000000; stroke-linecap:round; stroke-linejoin:round; stroke-width:4; stroke-opacity:1; fill:none" points="1445.91,1086.29 1464.81,1086.29 "/>
<path clip-path="url(#clip520)" d="M1272.32 1364.86 L1301.99 1364.86 L1301.99 1368.8 L1272.32 1368.8 L1272.32 1364.86 Z" fill="#000000" fill-rule="nonzero" fill-opacity="1" /><path clip-path="url(#clip520)" d="M1322.08 1350.21 Q1318.47 1350.21 1316.64 1353.78 Q1314.84 1357.32 1314.84 1364.45 Q1314.84 1371.55 1316.64 1375.12 Q1318.47 1378.66 1322.08 1378.66 Q1325.72 1378.66 1327.52 1375.12 Q1329.35 1371.55 1329.35 1364.45 Q1329.35 1357.32 1327.52 1353.78 Q1325.72 1350.21 1322.08 1350.21 M1322.08 1346.51 Q1327.89 1346.51 1330.95 1351.11 Q1334.03 1355.7 1334.03 1364.45 Q1334.03 1373.17 1330.95 1377.78 Q1327.89 1382.36 1322.08 1382.36 Q1316.27 1382.36 1313.2 1377.78 Q1310.14 1373.17 1310.14 1364.45 Q1310.14 1355.7 1313.2 1351.11 Q1316.27 1346.51 1322.08 1346.51 Z" fill="#000000" fill-rule="nonzero" fill-opacity="1" /><path clip-path="url(#clip520)" d="M1342.25 1375.81 L1347.13 1375.81 L1347.13 1381.69 L1342.25 1381.69 L1342.25 1375.81 Z" fill="#000000" fill-rule="nonzero" fill-opacity="1" /><path clip-path="url(#clip520)" d="M1367.32 1350.21 Q1363.7 1350.21 1361.88 1353.78 Q1360.07 1357.32 1360.07 1364.45 Q1360.07 1371.55 1361.88 1375.12 Q1363.7 1378.66 1367.32 1378.66 Q1370.95 1378.66 1372.76 1375.12 Q1374.58 1371.55 1374.58 1364.45 Q1374.58 1357.32 1372.76 1353.78 Q1370.95 1350.21 1367.32 1350.21 M1367.32 1346.51 Q1373.13 1346.51 1376.18 1351.11 Q1379.26 1355.7 1379.26 1364.45 Q1379.26 1373.17 1376.18 1377.78 Q1373.13 1382.36 1367.32 1382.36 Q1361.51 1382.36 1358.43 1377.78 Q1355.37 1373.17 1355.37 1364.45 Q1355.37 1355.7 1358.43 1351.11 Q1361.51 1346.51 1367.32 1346.51 Z" fill="#000000" fill-rule="nonzero" fill-opacity="1" /><path clip-path="url(#clip520)" d="M1400.32 1351.21 L1388.52 1369.66 L1400.32 1369.66 L1400.32 1351.21 M1399.1 1347.13 L1404.98 1347.13 L1404.98 1369.66 L1409.91 1369.66 L1409.91 1373.54 L1404.98 1373.54 L1404.98 1381.69 L1400.32 1381.69 L1400.32 1373.54 L1384.72 1373.54 L1384.72 1369.03 L1399.1 1347.13 Z" fill="#000000" fill-rule="nonzero" fill-opacity="1" /><path clip-path="url(#clip520)" d="M1274.4 1272.16 L1304.08 1272.16 L1304.08 1276.09 L1274.4 1276.09 L1274.4 1272.16 Z" fill="#000000" fill-rule="nonzero" fill-opacity="1" /><path clip-path="url(#clip520)" d="M1324.17 1257.5 Q1320.56 1257.5 1318.73 1261.07 Q1316.92 1264.61 1316.92 1271.74 Q1316.92 1278.85 1318.73 1282.41 Q1320.56 1285.95 1324.17 1285.95 Q1327.8 1285.95 1329.61 1282.41 Q1331.44 1278.85 1331.44 1271.74 Q1331.44 1264.61 1329.61 1261.07 Q1327.8 1257.5 1324.17 1257.5 M1324.17 1253.8 Q1329.98 1253.8 1333.03 1258.41 Q1336.11 1262.99 1336.11 1271.74 Q1336.11 1280.47 1333.03 1285.07 Q1329.98 1289.66 1324.17 1289.66 Q1318.36 1289.66 1315.28 1285.07 Q1312.22 1280.47 1312.22 1271.74 Q1312.22 1262.99 1315.28 1258.41 Q1318.36 1253.8 1324.17 1253.8 Z" fill="#000000" fill-rule="nonzero" fill-opacity="1" /><path clip-path="url(#clip520)" d="M1344.33 1283.1 L1349.21 1283.1 L1349.21 1288.98 L1344.33 1288.98 L1344.33 1283.1 Z" fill="#000000" fill-rule="nonzero" fill-opacity="1" /><path clip-path="url(#clip520)" d="M1369.4 1257.5 Q1365.79 1257.5 1363.96 1261.07 Q1362.15 1264.61 1362.15 1271.74 Q1362.15 1278.85 1363.96 1282.41 Q1365.79 1285.95 1369.4 1285.95 Q1373.03 1285.95 1374.84 1282.41 Q1376.67 1278.85 1376.67 1271.74 Q1376.67 1264.61 1374.84 1261.07 Q1373.03 1257.5 1369.4 1257.5 M1369.4 1253.8 Q1375.21 1253.8 1378.26 1258.41 Q1381.34 1262.99 1381.34 1271.74 Q1381.34 1280.47 1378.26 1285.07 Q1375.21 1289.66 1369.4 1289.66 Q1363.59 1289.66 1360.51 1285.07 Q1357.45 1280.47 1357.45 1271.74 Q1357.45 1262.99 1360.51 1258.41 Q1363.59 1253.8 1369.4 1253.8 Z" fill="#000000" fill-rule="nonzero" fill-opacity="1" /><path clip-path="url(#clip520)" d="M1393.59 1285.05 L1409.91 1285.05 L1409.91 1288.98 L1387.96 1288.98 L1387.96 1285.05 Q1390.63 1282.29 1395.21 1277.67 Q1399.82 1273.01 1401 1271.67 Q1403.24 1269.15 1404.12 1267.41 Q1405.02 1265.65 1405.02 1263.96 Q1405.02 1261.21 1403.08 1259.47 Q1401.16 1257.73 1398.06 1257.73 Q1395.86 1257.73 1393.4 1258.5 Q1390.97 1259.26 1388.19 1260.81 L1388.19 1256.09 Q1391.02 1254.96 1393.47 1254.38 Q1395.93 1253.8 1397.96 1253.8 Q1403.33 1253.8 1406.53 1256.48 Q1409.72 1259.17 1409.72 1263.66 Q1409.72 1265.79 1408.91 1267.71 Q1408.13 1269.61 1406.02 1272.2 Q1405.44 1272.87 1402.34 1276.09 Q1399.24 1279.29 1393.59 1285.05 Z" fill="#000000" fill-rule="nonzero" fill-opacity="1" /><path clip-path="url(#clip520)" d="M1322.57 1164.8 Q1318.96 1164.8 1317.13 1168.36 Q1315.32 1171.9 1315.32 1179.03 Q1315.32 1186.14 1317.13 1189.7 Q1318.96 1193.24 1322.57 1193.24 Q1326.2 1193.24 1328.01 1189.7 Q1329.84 1186.14 1329.84 1179.03 Q1329.84 1171.9 1328.01 1168.36 Q1326.2 1164.8 1322.57 1164.8 M1322.57 1161.09 Q1328.38 1161.09 1331.44 1165.7 Q1334.51 1170.28 1334.51 1179.03 Q1334.51 1187.76 1331.44 1192.36 Q1328.38 1196.95 1322.57 1196.95 Q1316.76 1196.95 1313.68 1192.36 Q1310.63 1187.76 1310.63 1179.03 Q1310.63 1170.28 1313.68 1165.7 Q1316.76 1161.09 1322.57 1161.09 Z" fill="#000000" fill-rule="nonzero" fill-opacity="1" /><path clip-path="url(#clip520)" d="M1342.73 1190.4 L1347.62 1190.4 L1347.62 1196.28 L1342.73 1196.28 L1342.73 1190.4 Z" fill="#000000" fill-rule="nonzero" fill-opacity="1" /><path clip-path="url(#clip520)" d="M1367.8 1164.8 Q1364.19 1164.8 1362.36 1168.36 Q1360.56 1171.9 1360.56 1179.03 Q1360.56 1186.14 1362.36 1189.7 Q1364.19 1193.24 1367.8 1193.24 Q1371.44 1193.24 1373.24 1189.7 Q1375.07 1186.14 1375.07 1179.03 Q1375.07 1171.9 1373.24 1168.36 Q1371.44 1164.8 1367.8 1164.8 M1367.8 1161.09 Q1373.61 1161.09 1376.67 1165.7 Q1379.75 1170.28 1379.75 1179.03 Q1379.75 1187.76 1376.67 1192.36 Q1373.61 1196.95 1367.8 1196.95 Q1361.99 1196.95 1358.91 1192.36 Q1355.86 1187.76 1355.86 1179.03 Q1355.86 1170.28 1358.91 1165.7 Q1361.99 1161.09 1367.8 1161.09 Z" fill="#000000" fill-rule="nonzero" fill-opacity="1" /><path clip-path="url(#clip520)" d="M1397.96 1164.8 Q1394.35 1164.8 1392.52 1168.36 Q1390.72 1171.9 1390.72 1179.03 Q1390.72 1186.14 1392.52 1189.7 Q1394.35 1193.24 1397.96 1193.24 Q1401.6 1193.24 1403.4 1189.7 Q1405.23 1186.14 1405.23 1179.03 Q1405.23 1171.9 1403.4 1168.36 Q1401.6 1164.8 1397.96 1164.8 M1397.96 1161.09 Q1403.77 1161.09 1406.83 1165.7 Q1409.91 1170.28 1409.91 1179.03 Q1409.91 1187.76 1406.83 1192.36 Q1403.77 1196.95 1397.96 1196.95 Q1392.15 1196.95 1389.07 1192.36 Q1386.02 1187.76 1386.02 1179.03 Q1386.02 1170.28 1389.07 1165.7 Q1392.15 1161.09 1397.96 1161.09 Z" fill="#000000" fill-rule="nonzero" fill-opacity="1" /><path clip-path="url(#clip520)" d="M1324.17 1072.09 Q1320.56 1072.09 1318.73 1075.65 Q1316.92 1079.19 1316.92 1086.32 Q1316.92 1093.43 1318.73 1096.99 Q1320.56 1100.54 1324.17 1100.54 Q1327.8 1100.54 1329.61 1096.99 Q1331.44 1093.43 1331.44 1086.32 Q1331.44 1079.19 1329.61 1075.65 Q1327.8 1072.09 1324.17 1072.09 M1324.17 1068.38 Q1329.98 1068.38 1333.03 1072.99 Q1336.11 1077.57 1336.11 1086.32 Q1336.11 1095.05 1333.03 1099.66 Q1329.98 1104.24 1324.17 1104.24 Q1318.36 1104.24 1315.28 1099.66 Q1312.22 1095.05 1312.22 1086.32 Q1312.22 1077.57 1315.28 1072.99 Q1318.36 1068.38 1324.17 1068.38 Z" fill="#000000" fill-rule="nonzero" fill-opacity="1" /><path clip-path="url(#clip520)" d="M1344.33 1097.69 L1349.21 1097.69 L1349.21 1103.57 L1344.33 1103.57 L1344.33 1097.69 Z" fill="#000000" fill-rule="nonzero" fill-opacity="1" /><path clip-path="url(#clip520)" d="M1369.4 1072.09 Q1365.79 1072.09 1363.96 1075.65 Q1362.15 1079.19 1362.15 1086.32 Q1362.15 1093.43 1363.96 1096.99 Q1365.79 1100.54 1369.4 1100.54 Q1373.03 1100.54 1374.84 1096.99 Q1376.67 1093.43 1376.67 1086.32 Q1376.67 1079.19 1374.84 1075.65 Q1373.03 1072.09 1369.4 1072.09 M1369.4 1068.38 Q1375.21 1068.38 1378.26 1072.99 Q1381.34 1077.57 1381.34 1086.32 Q1381.34 1095.05 1378.26 1099.66 Q1375.21 1104.24 1369.4 1104.24 Q1363.59 1104.24 1360.51 1099.66 Q1357.45 1095.05 1357.45 1086.32 Q1357.45 1077.57 1360.51 1072.99 Q1363.59 1068.38 1369.4 1068.38 Z" fill="#000000" fill-rule="nonzero" fill-opacity="1" /><path clip-path="url(#clip520)" d="M1393.59 1099.63 L1409.91 1099.63 L1409.91 1103.57 L1387.96 1103.57 L1387.96 1099.63 Q1390.63 1096.88 1395.21 1092.25 Q1399.82 1087.6 1401 1086.25 Q1403.24 1083.73 1404.12 1081.99 Q1405.02 1080.24 1405.02 1078.55 Q1405.02 1075.79 1403.08 1074.05 Q1401.16 1072.32 1398.06 1072.32 Q1395.86 1072.32 1393.4 1073.08 Q1390.97 1073.85 1388.19 1075.4 L1388.19 1070.68 Q1391.02 1069.54 1393.47 1068.96 Q1395.93 1068.38 1397.96 1068.38 Q1403.33 1068.38 1406.53 1071.07 Q1409.72 1073.75 1409.72 1078.24 Q1409.72 1080.37 1408.91 1082.3 Q1408.13 1084.19 1406.02 1086.79 Q1405.44 1087.46 1402.34 1090.68 Q1399.24 1093.87 1393.59 1099.63 Z" fill="#000000" fill-rule="nonzero" fill-opacity="1" /><path clip-path="url(#clip520)" d="M1182.01 1252.88 L1182.94 1253.44 Q1181.43 1256.93 1179.02 1261.28 Q1181.43 1265.63 1182.94 1269.13 L1182.01 1269.67 Q1178.7 1265.86 1176.15 1261.28 Q1178.72 1256.66 1182.01 1252.88 Z" fill="#000000" fill-rule="nonzero" fill-opacity="1" /><path clip-path="url(#clip520)" d="M1194.31 1249.71 Q1196.12 1249.71 1197.15 1250.84 Q1198.14 1251.97 1198.14 1253.26 Q1198.14 1254.48 1197.44 1255.12 Q1196.73 1255.77 1195.83 1255.77 Q1194.6 1255.77 1193.54 1254.87 Q1192.48 1253.96 1192.25 1252.61 Q1191.41 1253.93 1191.41 1255.9 Q1191.41 1257.18 1192.09 1258.31 Q1192.77 1259.41 1193.64 1260.08 Q1194.51 1260.73 1195.76 1261.31 Q1196.99 1261.85 1197.73 1262.08 Q1198.43 1262.27 1199.21 1262.43 L1208.23 1264.69 Q1212.51 1265.78 1214.02 1265.78 Q1215.89 1265.78 1217.15 1264.88 Q1218.37 1263.98 1218.37 1262.18 Q1218.37 1261.47 1218.18 1260.66 Q1217.95 1259.86 1217.37 1258.83 Q1216.76 1257.76 1215.86 1256.83 Q1214.92 1255.86 1213.35 1254.93 Q1211.77 1254 1209.74 1253.38 Q1209.03 1253.19 1209.03 1252.55 Q1209.03 1251.74 1209.67 1251.74 Q1210.22 1251.74 1211.38 1252.19 Q1212.51 1252.61 1213.99 1253.55 Q1215.44 1254.45 1216.76 1255.64 Q1218.05 1256.83 1218.95 1258.6 Q1219.85 1260.37 1219.85 1262.31 Q1219.85 1265.08 1218.37 1266.91 Q1216.89 1268.75 1214.83 1269.42 Q1215.12 1269.58 1215.5 1269.81 Q1215.89 1270.03 1216.76 1270.71 Q1217.6 1271.36 1218.24 1272.1 Q1218.85 1272.84 1219.34 1274 Q1219.85 1275.12 1219.85 1276.35 Q1219.85 1277.89 1219.4 1279.28 Q1218.95 1280.63 1217.92 1281.6 Q1216.89 1282.56 1215.47 1282.56 Q1213.89 1282.56 1212.8 1281.5 Q1211.67 1280.41 1211.67 1278.92 Q1211.67 1277.99 1212.22 1277.25 Q1212.77 1276.48 1213.96 1276.48 Q1215.28 1276.48 1216.28 1277.38 Q1217.27 1278.28 1217.53 1279.57 Q1218.37 1278.25 1218.37 1276.28 Q1218.37 1274.16 1216.5 1272.48 Q1214.63 1270.81 1211.51 1270 Q1204.01 1268.01 1200.66 1267.23 Q1197.28 1266.46 1195.83 1266.46 Q1194.47 1266.46 1193.54 1266.81 Q1192.61 1267.17 1192.19 1267.78 Q1191.74 1268.36 1191.57 1268.91 Q1191.41 1269.42 1191.41 1270 Q1191.41 1270.97 1191.8 1272.06 Q1192.19 1273.13 1193.09 1274.41 Q1193.96 1275.67 1195.76 1276.86 Q1197.56 1278.05 1200.04 1278.86 Q1200.79 1279.02 1200.79 1279.73 Q1200.75 1280.5 1200.11 1280.5 Q1199.56 1280.5 1198.43 1280.08 Q1197.28 1279.63 1195.83 1278.73 Q1194.38 1277.8 1193.09 1276.6 Q1191.77 1275.38 1190.87 1273.61 Q1189.96 1271.81 1189.96 1269.87 Q1189.96 1269 1190.16 1268.17 Q1190.32 1267.3 1190.8 1266.27 Q1191.28 1265.2 1192.35 1264.27 Q1193.41 1263.34 1194.96 1262.76 Q1194.22 1262.37 1193.51 1261.85 Q1192.8 1261.31 1191.93 1260.47 Q1191.03 1259.6 1190.51 1258.41 Q1189.96 1257.18 1189.96 1255.83 Q1189.96 1254.51 1190.32 1253.22 Q1190.64 1251.94 1191.7 1250.84 Q1192.73 1249.71 1194.31 1249.71 Z" fill="#000000" fill-rule="nonzero" fill-opacity="1" /><path clip-path="url(#clip520)" d="M1231.9 1242.25 Q1230.52 1242.25 1229.87 1241.46 Q1229.22 1240.68 1229.22 1239.66 Q1229.22 1238.6 1229.92 1237.86 Q1230.59 1237.09 1231.79 1237.09 Q1233.07 1237.09 1233.79 1237.99 Q1234.51 1238.87 1234.33 1240.13 Q1236.18 1239.03 1237.02 1237 Q1237.85 1234.95 1237.85 1233.06 Q1237.85 1231.07 1236.14 1229.47 Q1234.42 1227.85 1230.23 1227.85 Q1226.67 1227.85 1224.62 1229.25 Q1222.57 1230.62 1222.57 1233.35 L1222.57 1235.38 Q1222.57 1236.08 1222.5 1236.28 Q1222.43 1236.48 1222.05 1236.48 Q1221.6 1236.48 1221.51 1235.78 Q1221.51 1235.08 1221.37 1233.98 Q1221.28 1231.3 1218.96 1229.88 Q1216.79 1228.59 1213.71 1228.59 Q1210.89 1228.59 1209.72 1229.94 Q1208.52 1231.27 1208.52 1233.01 Q1208.52 1234.63 1209.2 1236.41 Q1209.87 1238.2 1211.38 1239.17 Q1211.38 1236.3 1213.71 1236.3 Q1214.72 1236.3 1215.4 1236.96 Q1216.05 1237.59 1216.05 1238.65 Q1216.05 1239.66 1215.42 1240.34 Q1214.77 1241.01 1213.66 1241.01 Q1211.02 1241.01 1209.2 1238.67 Q1207.37 1236.3 1207.37 1232.83 Q1207.37 1229.4 1209.17 1226.88 Q1210.98 1224.33 1213.75 1224.33 Q1216.48 1224.33 1218.71 1226.13 Q1220.94 1227.94 1221.87 1230.8 Q1222.57 1227.28 1224.96 1225.19 Q1227.32 1223.09 1230.23 1223.09 Q1233.84 1223.09 1236.5 1225.93 Q1239.14 1228.77 1239.14 1232.92 Q1239.14 1236.75 1237.06 1239.5 Q1234.99 1242.25 1231.9 1242.25 Z" fill="#000000" fill-rule="nonzero" fill-opacity="1" /><polyline clip-path="url(#clip525)" style="stroke:#e26f46; stroke-linecap:round; stroke-linejoin:round; stroke-width:3; stroke-opacity:1; fill:none" stroke-dasharray="12, 6, 2, 6" points="1471.57,1179 1496.74,1081.68 1521.9,1216.53 1547.06,1413.23 1572.22,1387.22 1597.38,1360.97 1622.55,1348.82 1647.71,1376.03 1672.87,1335.65 1698.03,1333.52 1723.2,1299.77 1748.36,1271.85 1773.52,1248.86 1798.68,1203.39 1823.85,1231.84 1849.01,1226.7 1874.17,1207.09 1899.33,1211.71 1924.49,1139.28 1949.66,1226.4 1974.82,1209.55 1999.98,1226.29 2025.14,1180.51 2050.31,1175.9 2075.47,1214.92 2100.63,1212.36 2125.79,1199.77 2150.95,1170.07 2176.12,1194.14 2201.28,1227.72 2226.44,1188.61 2251.6,1160.03 2276.77,1218.53 2301.93,1203.69 2327.09,1202.33 "/>
</svg>
